<?xml version="1.0" standalone="no"?>
<!DOCTYPE svg PUBLIC "-//W3C//DTD SVG 1.0//EN" "http://www.w3.org/TR/2001/REC-SVG-20010904/DTD/svg10.dtd">
<svg xmlns="http://www.w3.org/2000/svg" xmlns:xlink="http://www.w3.org/1999/xlink" id="body_1" width="686" height="607">

<g transform="matrix(1 0 0 1 0 0)">
    <path transform="matrix(0.00572777 -0.999984 -0.999984 -0.00572777 29.2125 557.988)"  d="M2 0C 2 0.5522848 1.8047379 1.0236893 1.4142135 1.4142135C 1.0236893 1.8047379 0.5522848 2 0 2C -0.5522848 2 -1.0236893 1.8047379 -1.4142135 1.4142135C -1.8047379 1.0236893 -2 0.5522848 -2 0C -2 -0.5522848 -1.8047379 -1.0236893 -1.4142135 -1.4142135C -1.0236893 -1.8047379 -0.5522848 -2 0 -2C 0.5522848 -2 1.0236893 -1.8047379 1.4142135 -1.4142135C 1.8047379 -1.0236893 2 -0.5522848 2 0C 2 0.023273421 1.999594 0.046539754 1.9987817 0.06979899" stroke="none" fill="#3370FF" fill-rule="nonzero" fill-opacity="0.14901961" />
    <path transform="matrix(0.00572777 -0.999984 -0.999984 -0.00572777 43.0114 558.011)"  d="M2 0C 2 0.5522848 1.8047379 1.0236893 1.4142135 1.4142135C 1.0236893 1.8047379 0.5522848 2 0 2C -0.5522848 2 -1.0236893 1.8047379 -1.4142135 1.4142135C -1.8047379 1.0236893 -2 0.5522848 -2 0C -2 -0.5522848 -1.8047379 -1.0236893 -1.4142135 -1.4142135C -1.0236893 -1.8047379 -0.5522848 -2 0 -2C 0.5522848 -2 1.0236893 -1.8047379 1.4142135 -1.4142135C 1.8047379 -1.0236893 2 -0.5522848 2 0C 2 0.023273421 1.999594 0.046539754 1.9987817 0.06979899" stroke="none" fill="#3370FF" fill-rule="nonzero" fill-opacity="0.14901961" />
    <path transform="matrix(-0.99997 -0.00777117 -0.00777117 0.99997 162.016 557.613)"  d="M2 0C 2 0.5522848 1.8047379 1.0236893 1.4142135 1.4142135C 1.0236893 1.8047379 0.5522848 2 0 2C -0.5522848 2 -1.0236893 1.8047379 -1.4142135 1.4142135C -1.8047379 1.0236893 -2 0.5522848 -2 0C -2 -0.5522848 -1.8047379 -1.0236893 -1.4142135 -1.4142135C -1.0236893 -1.8047379 -0.5522848 -2 0 -2C 0.5522848 -2 1.0236893 -1.8047379 1.4142135 -1.4142135C 1.8047379 -1.0236893 2 -0.5522848 2 0C 2 0.023273421 1.999594 0.046539754 1.9987817 0.06979899" stroke="none" fill="#3370FF" fill-rule="nonzero" fill-opacity="0.14901961" />
    <path transform="matrix(-0.99997 -0.00777117 -0.00777117 0.99997 162.067 543.814)"  d="M2 0C 2 0.5522848 1.8047379 1.0236893 1.4142135 1.4142135C 1.0236893 1.8047379 0.5522848 2 0 2C -0.5522848 2 -1.0236893 1.8047379 -1.4142135 1.4142135C -1.8047379 1.0236893 -2 0.5522848 -2 0C -2 -0.5522848 -1.8047379 -1.0236893 -1.4142135 -1.4142135C -1.0236893 -1.8047379 -0.5522848 -2 0 -2C 0.5522848 -2 1.0236893 -1.8047379 1.4142135 -1.4142135C 1.8047379 -1.0236893 2 -0.5522848 2 0C 2 0.023273421 1.999594 0.046539754 1.9987817 0.06979899" stroke="none" fill="#3370FF" fill-rule="nonzero" fill-opacity="0.14901961" />
    <path transform="matrix(-0.99997 -0.00777117 -0.00777117 0.99997 175.016 557.613)"  d="M2 0C 2 0.5522848 1.8047379 1.0236893 1.4142135 1.4142135C 1.0236893 1.8047379 0.5522848 2 0 2C -0.5522848 2 -1.0236893 1.8047379 -1.4142135 1.4142135C -1.8047379 1.0236893 -2 0.5522848 -2 0C -2 -0.5522848 -1.8047379 -1.0236893 -1.4142135 -1.4142135C -1.0236893 -1.8047379 -0.5522848 -2 0 -2C 0.5522848 -2 1.0236893 -1.8047379 1.4142135 -1.4142135C 1.8047379 -1.0236893 2 -0.5522848 2 0C 2 0.023273421 1.999594 0.046539754 1.9987817 0.06979899" stroke="none" fill="#3370FF" fill-rule="nonzero" fill-opacity="0.14901961" />
    <path transform="matrix(-0.99997 -0.00777117 -0.00777117 0.99997 175.067 543.814)"  d="M2 0C 2 0.5522848 1.8047379 1.0236893 1.4142135 1.4142135C 1.0236893 1.8047379 0.5522848 2 0 2C -0.5522848 2 -1.0236893 1.8047379 -1.4142135 1.4142135C -1.8047379 1.0236893 -2 0.5522848 -2 0C -2 -0.5522848 -1.8047379 -1.0236893 -1.4142135 -1.4142135C -1.0236893 -1.8047379 -0.5522848 -2 0 -2C 0.5522848 -2 1.0236893 -1.8047379 1.4142135 -1.4142135C 1.8047379 -1.0236893 2 -0.5522848 2 0C 2 0.023273421 1.999594 0.046539754 1.9987817 0.06979899" stroke="none" fill="#3370FF" fill-rule="nonzero" fill-opacity="0.14901961" />
    <path transform="matrix(0.00572777 -0.999984 -0.999984 -0.00572777 29.2125 417.988)"  d="M2 0C 2 0.5522848 1.8047379 1.0236893 1.4142135 1.4142135C 1.0236893 1.8047379 0.5522848 2 0 2C -0.5522848 2 -1.0236893 1.8047379 -1.4142135 1.4142135C -1.8047379 1.0236893 -2 0.5522848 -2 0C -2 -0.5522848 -1.8047379 -1.0236893 -1.4142135 -1.4142135C -1.0236893 -1.8047379 -0.5522848 -2 0 -2C 0.5522848 -2 1.0236893 -1.8047379 1.4142135 -1.4142135C 1.8047379 -1.0236893 2 -0.5522848 2 0C 2 0.023273421 1.999594 0.046539754 1.9987817 0.06979899" stroke="none" fill="#3370FF" fill-rule="nonzero" fill-opacity="0.14901961" />
    <path transform="matrix(0.00572777 -0.999984 -0.999984 -0.00572777 43.0114 418.011)"  d="M2 0C 2 0.5522848 1.8047379 1.0236893 1.4142135 1.4142135C 1.0236893 1.8047379 0.5522848 2 0 2C -0.5522848 2 -1.0236893 1.8047379 -1.4142135 1.4142135C -1.8047379 1.0236893 -2 0.5522848 -2 0C -2 -0.5522848 -1.8047379 -1.0236893 -1.4142135 -1.4142135C -1.0236893 -1.8047379 -0.5522848 -2 0 -2C 0.5522848 -2 1.0236893 -1.8047379 1.4142135 -1.4142135C 1.8047379 -1.0236893 2 -0.5522848 2 0C 2 0.023273421 1.999594 0.046539754 1.9987817 0.06979899" stroke="none" fill="#3370FF" fill-rule="nonzero" fill-opacity="0.14901961" />
    <path transform="matrix(0.00572777 -0.999984 -0.999984 -0.00572777 29.2125 403.988)"  d="M2 0C 2 0.5522848 1.8047379 1.0236893 1.4142135 1.4142135C 1.0236893 1.8047379 0.5522848 2 0 2C -0.5522848 2 -1.0236893 1.8047379 -1.4142135 1.4142135C -1.8047379 1.0236893 -2 0.5522848 -2 0C -2 -0.5522848 -1.8047379 -1.0236893 -1.4142135 -1.4142135C -1.0236893 -1.8047379 -0.5522848 -2 0 -2C 0.5522848 -2 1.0236893 -1.8047379 1.4142135 -1.4142135C 1.8047379 -1.0236893 2 -0.5522848 2 0C 2 0.023273421 1.999594 0.046539754 1.9987817 0.06979899" stroke="none" fill="#3370FF" fill-rule="nonzero" fill-opacity="0.14901961" />
    <path transform="matrix(0.00572777 -0.999984 -0.999984 -0.00572777 43.0114 404.011)"  d="M2 0C 2 0.5522848 1.8047379 1.0236893 1.4142135 1.4142135C 1.0236893 1.8047379 0.5522848 2 0 2C -0.5522848 2 -1.0236893 1.8047379 -1.4142135 1.4142135C -1.8047379 1.0236893 -2 0.5522848 -2 0C -2 -0.5522848 -1.8047379 -1.0236893 -1.4142135 -1.4142135C -1.0236893 -1.8047379 -0.5522848 -2 0 -2C 0.5522848 -2 1.0236893 -1.8047379 1.4142135 -1.4142135C 1.8047379 -1.0236893 2 -0.5522848 2 0C 2 0.023273421 1.999594 0.046539754 1.9987817 0.06979899" stroke="none" fill="#3370FF" fill-rule="nonzero" fill-opacity="0.14901961" />
    <path transform="matrix(0.00572777 -0.999984 -0.999984 -0.00572777 29.0114 544.011)"  d="M2 0C 2 0.5522848 1.8047379 1.0236893 1.4142135 1.4142135C 1.0236893 1.8047379 0.5522848 2 0 2C -0.5522848 2 -1.0236893 1.8047379 -1.4142135 1.4142135C -1.8047379 1.0236893 -2 0.5522848 -2 0C -2 -0.5522848 -1.8047379 -1.0236893 -1.4142135 -1.4142135C -1.0236893 -1.8047379 -0.5522848 -2 0 -2C 0.5522848 -2 1.0236893 -1.8047379 1.4142135 -1.4142135C 1.8047379 -1.0236893 2 -0.5522848 2 0C 2 0.023273421 1.999594 0.046539754 1.9987817 0.06979899" stroke="none" fill="#3370FF" fill-rule="nonzero" fill-opacity="0.14901961" />
    <path transform="matrix(0.00572777 -0.999984 -0.999984 -0.00572777 42.8104 544.034)"  d="M2 0C 2 0.5522848 1.8047379 1.0236893 1.4142135 1.4142135C 1.0236893 1.8047379 0.5522848 2 0 2C -0.5522848 2 -1.0236893 1.8047379 -1.4142135 1.4142135C -1.8047379 1.0236893 -2 0.5522848 -2 0C -2 -0.5522848 -1.8047379 -1.0236893 -1.4142135 -1.4142135C -1.0236893 -1.8047379 -0.5522848 -2 0 -2C 0.5522848 -2 1.0236893 -1.8047379 1.4142135 -1.4142135C 1.8047379 -1.0236893 2 -0.5522848 2 0C 2 0.023273421 1.999594 0.046539754 1.9987817 0.06979899" stroke="none" fill="#3370FF" fill-rule="nonzero" fill-opacity="0.14901961" />
    <path transform="matrix(0.00572777 -0.999984 -0.999984 -0.00572777 29.0114 530.011)"  d="M2 0C 2 0.5522848 1.8047379 1.0236893 1.4142135 1.4142135C 1.0236893 1.8047379 0.5522848 2 0 2C -0.5522848 2 -1.0236893 1.8047379 -1.4142135 1.4142135C -1.8047379 1.0236893 -2 0.5522848 -2 0C -2 -0.5522848 -1.8047379 -1.0236893 -1.4142135 -1.4142135C -1.0236893 -1.8047379 -0.5522848 -2 0 -2C 0.5522848 -2 1.0236893 -1.8047379 1.4142135 -1.4142135C 1.8047379 -1.0236893 2 -0.5522848 2 0C 2 0.023273421 1.999594 0.046539754 1.9987817 0.06979899" stroke="none" fill="#3370FF" fill-rule="nonzero" fill-opacity="0.14901961" />
    <path transform="matrix(0.00572777 -0.999984 -0.999984 -0.00572777 42.8104 530.034)"  d="M2 0C 2 0.5522848 1.8047379 1.0236893 1.4142135 1.4142135C 1.0236893 1.8047379 0.5522848 2 0 2C -0.5522848 2 -1.0236893 1.8047379 -1.4142135 1.4142135C -1.8047379 1.0236893 -2 0.5522848 -2 0C -2 -0.5522848 -1.8047379 -1.0236893 -1.4142135 -1.4142135C -1.0236893 -1.8047379 -0.5522848 -2 0 -2C 0.5522848 -2 1.0236893 -1.8047379 1.4142135 -1.4142135C 1.8047379 -1.0236893 2 -0.5522848 2 0C 2 0.023273421 1.999594 0.046539754 1.9987817 0.06979899" stroke="none" fill="#3370FF" fill-rule="nonzero" fill-opacity="0.14901961" />
    <path transform="matrix(0.00572777 -0.999984 -0.999984 -0.00572777 29.0114 516.011)"  d="M2 0C 2 0.5522848 1.8047379 1.0236893 1.4142135 1.4142135C 1.0236893 1.8047379 0.5522848 2 0 2C -0.5522848 2 -1.0236893 1.8047379 -1.4142135 1.4142135C -1.8047379 1.0236893 -2 0.5522848 -2 0C -2 -0.5522848 -1.8047379 -1.0236893 -1.4142135 -1.4142135C -1.0236893 -1.8047379 -0.5522848 -2 0 -2C 0.5522848 -2 1.0236893 -1.8047379 1.4142135 -1.4142135C 1.8047379 -1.0236893 2 -0.5522848 2 0C 2 0.023273421 1.999594 0.046539754 1.9987817 0.06979899" stroke="none" fill="#3370FF" fill-rule="nonzero" fill-opacity="0.14901961" />
    <path transform="matrix(0.00572777 -0.999984 -0.999984 -0.00572777 42.8104 516.034)"  d="M2 0C 2 0.5522848 1.8047379 1.0236893 1.4142135 1.4142135C 1.0236893 1.8047379 0.5522848 2 0 2C -0.5522848 2 -1.0236893 1.8047379 -1.4142135 1.4142135C -1.8047379 1.0236893 -2 0.5522848 -2 0C -2 -0.5522848 -1.8047379 -1.0236893 -1.4142135 -1.4142135C -1.0236893 -1.8047379 -0.5522848 -2 0 -2C 0.5522848 -2 1.0236893 -1.8047379 1.4142135 -1.4142135C 1.8047379 -1.0236893 2 -0.5522848 2 0C 2 0.023273421 1.999594 0.046539754 1.9987817 0.06979899" stroke="none" fill="#3370FF" fill-rule="nonzero" fill-opacity="0.14901961" />
    <path transform="matrix(0.00572777 -0.999984 -0.999984 -0.00572777 29.0114 502.011)"  d="M2 0C 2 0.5522848 1.8047379 1.0236893 1.4142135 1.4142135C 1.0236893 1.8047379 0.5522848 2 0 2C -0.5522848 2 -1.0236893 1.8047379 -1.4142135 1.4142135C -1.8047379 1.0236893 -2 0.5522848 -2 0C -2 -0.5522848 -1.8047379 -1.0236893 -1.4142135 -1.4142135C -1.0236893 -1.8047379 -0.5522848 -2 0 -2C 0.5522848 -2 1.0236893 -1.8047379 1.4142135 -1.4142135C 1.8047379 -1.0236893 2 -0.5522848 2 0C 2 0.023273421 1.999594 0.046539754 1.9987817 0.06979899" stroke="none" fill="#3370FF" fill-rule="nonzero" fill-opacity="0.14901961" />
    <path transform="matrix(0.00572777 -0.999984 -0.999984 -0.00572777 42.8104 502.034)"  d="M2 0C 2 0.5522848 1.8047379 1.0236893 1.4142135 1.4142135C 1.0236893 1.8047379 0.5522848 2 0 2C -0.5522848 2 -1.0236893 1.8047379 -1.4142135 1.4142135C -1.8047379 1.0236893 -2 0.5522848 -2 0C -2 -0.5522848 -1.8047379 -1.0236893 -1.4142135 -1.4142135C -1.0236893 -1.8047379 -0.5522848 -2 0 -2C 0.5522848 -2 1.0236893 -1.8047379 1.4142135 -1.4142135C 1.8047379 -1.0236893 2 -0.5522848 2 0C 2 0.023273421 1.999594 0.046539754 1.9987817 0.06979899" stroke="none" fill="#3370FF" fill-rule="nonzero" fill-opacity="0.14901961" />
    <path transform="matrix(0.00572777 -0.999984 -0.999984 -0.00572777 29.0114 488.011)"  d="M2 0C 2 0.5522848 1.8047379 1.0236893 1.4142135 1.4142135C 1.0236893 1.8047379 0.5522848 2 0 2C -0.5522848 2 -1.0236893 1.8047379 -1.4142135 1.4142135C -1.8047379 1.0236893 -2 0.5522848 -2 0C -2 -0.5522848 -1.8047379 -1.0236893 -1.4142135 -1.4142135C -1.0236893 -1.8047379 -0.5522848 -2 0 -2C 0.5522848 -2 1.0236893 -1.8047379 1.4142135 -1.4142135C 1.8047379 -1.0236893 2 -0.5522848 2 0C 2 0.023273421 1.999594 0.046539754 1.9987817 0.06979899" stroke="none" fill="#3370FF" fill-rule="nonzero" fill-opacity="0.14901961" />
    <path transform="matrix(0.00572777 -0.999984 -0.999984 -0.00572777 42.8104 488.034)"  d="M2 0C 2 0.5522848 1.8047379 1.0236893 1.4142135 1.4142135C 1.0236893 1.8047379 0.5522848 2 0 2C -0.5522848 2 -1.0236893 1.8047379 -1.4142135 1.4142135C -1.8047379 1.0236893 -2 0.5522848 -2 0C -2 -0.5522848 -1.8047379 -1.0236893 -1.4142135 -1.4142135C -1.0236893 -1.8047379 -0.5522848 -2 0 -2C 0.5522848 -2 1.0236893 -1.8047379 1.4142135 -1.4142135C 1.8047379 -1.0236893 2 -0.5522848 2 0C 2 0.023273421 1.999594 0.046539754 1.9987817 0.06979899" stroke="none" fill="#3370FF" fill-rule="nonzero" fill-opacity="0.14901961" />
    <path transform="matrix(0.00572777 -0.999984 -0.999984 -0.00572777 29.0114 474.011)"  d="M2 0C 2 0.5522848 1.8047379 1.0236893 1.4142135 1.4142135C 1.0236893 1.8047379 0.5522848 2 0 2C -0.5522848 2 -1.0236893 1.8047379 -1.4142135 1.4142135C -1.8047379 1.0236893 -2 0.5522848 -2 0C -2 -0.5522848 -1.8047379 -1.0236893 -1.4142135 -1.4142135C -1.0236893 -1.8047379 -0.5522848 -2 0 -2C 0.5522848 -2 1.0236893 -1.8047379 1.4142135 -1.4142135C 1.8047379 -1.0236893 2 -0.5522848 2 0C 2 0.023273421 1.999594 0.046539754 1.9987817 0.06979899" stroke="none" fill="#3370FF" fill-rule="nonzero" fill-opacity="0.14901961" />
    <path transform="matrix(0.00572777 -0.999984 -0.999984 -0.00572777 42.8104 474.034)"  d="M2 0C 2 0.5522848 1.8047379 1.0236893 1.4142135 1.4142135C 1.0236893 1.8047379 0.5522848 2 0 2C -0.5522848 2 -1.0236893 1.8047379 -1.4142135 1.4142135C -1.8047379 1.0236893 -2 0.5522848 -2 0C -2 -0.5522848 -1.8047379 -1.0236893 -1.4142135 -1.4142135C -1.0236893 -1.8047379 -0.5522848 -2 0 -2C 0.5522848 -2 1.0236893 -1.8047379 1.4142135 -1.4142135C 1.8047379 -1.0236893 2 -0.5522848 2 0C 2 0.023273421 1.999594 0.046539754 1.9987817 0.06979899" stroke="none" fill="#3370FF" fill-rule="nonzero" fill-opacity="0.14901961" />
    <path transform="matrix(0.00572777 -0.999984 -0.999984 -0.00572777 29.0114 460.011)"  d="M2 0C 2 0.5522848 1.8047379 1.0236893 1.4142135 1.4142135C 1.0236893 1.8047379 0.5522848 2 0 2C -0.5522848 2 -1.0236893 1.8047379 -1.4142135 1.4142135C -1.8047379 1.0236893 -2 0.5522848 -2 0C -2 -0.5522848 -1.8047379 -1.0236893 -1.4142135 -1.4142135C -1.0236893 -1.8047379 -0.5522848 -2 0 -2C 0.5522848 -2 1.0236893 -1.8047379 1.4142135 -1.4142135C 1.8047379 -1.0236893 2 -0.5522848 2 0C 2 0.023273421 1.999594 0.046539754 1.9987817 0.06979899" stroke="none" fill="#3370FF" fill-rule="nonzero" fill-opacity="0.14901961" />
    <path transform="matrix(0.00572777 -0.999984 -0.999984 -0.00572777 42.8104 460.034)"  d="M2 0C 2 0.5522848 1.8047379 1.0236893 1.4142135 1.4142135C 1.0236893 1.8047379 0.5522848 2 0 2C -0.5522848 2 -1.0236893 1.8047379 -1.4142135 1.4142135C -1.8047379 1.0236893 -2 0.5522848 -2 0C -2 -0.5522848 -1.8047379 -1.0236893 -1.4142135 -1.4142135C -1.0236893 -1.8047379 -0.5522848 -2 0 -2C 0.5522848 -2 1.0236893 -1.8047379 1.4142135 -1.4142135C 1.8047379 -1.0236893 2 -0.5522848 2 0C 2 0.023273421 1.999594 0.046539754 1.9987817 0.06979899" stroke="none" fill="#3370FF" fill-rule="nonzero" fill-opacity="0.14901961" />
    <path transform="matrix(0.00572777 -0.999984 -0.999984 -0.00572777 29.0114 446.011)"  d="M2 0C 2 0.5522848 1.8047379 1.0236893 1.4142135 1.4142135C 1.0236893 1.8047379 0.5522848 2 0 2C -0.5522848 2 -1.0236893 1.8047379 -1.4142135 1.4142135C -1.8047379 1.0236893 -2 0.5522848 -2 0C -2 -0.5522848 -1.8047379 -1.0236893 -1.4142135 -1.4142135C -1.0236893 -1.8047379 -0.5522848 -2 0 -2C 0.5522848 -2 1.0236893 -1.8047379 1.4142135 -1.4142135C 1.8047379 -1.0236893 2 -0.5522848 2 0C 2 0.023273421 1.999594 0.046539754 1.9987817 0.06979899" stroke="none" fill="#3370FF" fill-rule="nonzero" fill-opacity="0.14901961" />
    <path transform="matrix(0.00572777 -0.999984 -0.999984 -0.00572777 42.8104 446.034)"  d="M2 0C 2 0.5522848 1.8047379 1.0236893 1.4142135 1.4142135C 1.0236893 1.8047379 0.5522848 2 0 2C -0.5522848 2 -1.0236893 1.8047379 -1.4142135 1.4142135C -1.8047379 1.0236893 -2 0.5522848 -2 0C -2 -0.5522848 -1.8047379 -1.0236893 -1.4142135 -1.4142135C -1.0236893 -1.8047379 -0.5522848 -2 0 -2C 0.5522848 -2 1.0236893 -1.8047379 1.4142135 -1.4142135C 1.8047379 -1.0236893 2 -0.5522848 2 0C 2 0.023273421 1.999594 0.046539754 1.9987817 0.06979899" stroke="none" fill="#3370FF" fill-rule="nonzero" fill-opacity="0.14901961" />
    <path transform="matrix(0.00572777 -0.999984 -0.999984 -0.00572777 29.0114 432.011)"  d="M2 0C 2 0.5522848 1.8047379 1.0236893 1.4142135 1.4142135C 1.0236893 1.8047379 0.5522848 2 0 2C -0.5522848 2 -1.0236893 1.8047379 -1.4142135 1.4142135C -1.8047379 1.0236893 -2 0.5522848 -2 0C -2 -0.5522848 -1.8047379 -1.0236893 -1.4142135 -1.4142135C -1.0236893 -1.8047379 -0.5522848 -2 0 -2C 0.5522848 -2 1.0236893 -1.8047379 1.4142135 -1.4142135C 1.8047379 -1.0236893 2 -0.5522848 2 0C 2 0.023273421 1.999594 0.046539754 1.9987817 0.06979899" stroke="none" fill="#3370FF" fill-rule="nonzero" fill-opacity="0.14901961" />
    <path transform="matrix(0.00572777 -0.999984 -0.999984 -0.00572777 42.8104 432.034)"  d="M2 0C 2 0.5522848 1.8047379 1.0236893 1.4142135 1.4142135C 1.0236893 1.8047379 0.5522848 2 0 2C -0.5522848 2 -1.0236893 1.8047379 -1.4142135 1.4142135C -1.8047379 1.0236893 -2 0.5522848 -2 0C -2 -0.5522848 -1.8047379 -1.0236893 -1.4142135 -1.4142135C -1.0236893 -1.8047379 -0.5522848 -2 0 -2C 0.5522848 -2 1.0236893 -1.8047379 1.4142135 -1.4142135C 1.8047379 -1.0236893 2 -0.5522848 2 0C 2 0.023273421 1.999594 0.046539754 1.9987817 0.06979899" stroke="none" fill="#3370FF" fill-rule="nonzero" fill-opacity="0.14901961" />
    <path transform="matrix(0.00572777 -0.999984 -0.999984 -0.00572777 82.0114 558.011)"  d="M2 0C 2 0.5522848 1.8047379 1.0236893 1.4142135 1.4142135C 1.0236893 1.8047379 0.5522848 2 0 2C -0.5522848 2 -1.0236893 1.8047379 -1.4142135 1.4142135C -1.8047379 1.0236893 -2 0.5522848 -2 0C -2 -0.5522848 -1.8047379 -1.0236893 -1.4142135 -1.4142135C -1.0236893 -1.8047379 -0.5522848 -2 0 -2C 0.5522848 -2 1.0236893 -1.8047379 1.4142135 -1.4142135C 1.8047379 -1.0236893 2 -0.5522848 2 0C 2 0.023273421 1.999594 0.046539754 1.9987817 0.06979899" stroke="none" fill="#3370FF" fill-rule="nonzero" fill-opacity="0.14901961" />
    <path transform="matrix(0.00572777 -0.999984 -0.999984 -0.00572777 95.8104 558.034)"  d="M2 0C 2 0.5522848 1.8047379 1.0236893 1.4142135 1.4142135C 1.0236893 1.8047379 0.5522848 2 0 2C -0.5522848 2 -1.0236893 1.8047379 -1.4142135 1.4142135C -1.8047379 1.0236893 -2 0.5522848 -2 0C -2 -0.5522848 -1.8047379 -1.0236893 -1.4142135 -1.4142135C -1.0236893 -1.8047379 -0.5522848 -2 0 -2C 0.5522848 -2 1.0236893 -1.8047379 1.4142135 -1.4142135C 1.8047379 -1.0236893 2 -0.5522848 2 0C 2 0.023273421 1.999594 0.046539754 1.9987817 0.06979899" stroke="none" fill="#3370FF" fill-rule="nonzero" fill-opacity="0.14901961" />
    <path transform="matrix(-0.99997 -0.00777117 -0.00777117 0.99997 162.146 504.814)"  d="M2 0C 2 0.5522848 1.8047379 1.0236893 1.4142135 1.4142135C 1.0236893 1.8047379 0.5522848 2 0 2C -0.5522848 2 -1.0236893 1.8047379 -1.4142135 1.4142135C -1.8047379 1.0236893 -2 0.5522848 -2 0C -2 -0.5522848 -1.8047379 -1.0236893 -1.4142135 -1.4142135C -1.0236893 -1.8047379 -0.5522848 -2 0 -2C 0.5522848 -2 1.0236893 -1.8047379 1.4142135 -1.4142135C 1.8047379 -1.0236893 2 -0.5522848 2 0C 2 0.023273421 1.999594 0.046539754 1.9987817 0.06979899" stroke="none" fill="#3370FF" fill-rule="nonzero" fill-opacity="0.14901961" />
    <path transform="matrix(-0.99997 -0.00777117 -0.00777117 0.99997 162.198 491.016)"  d="M2 0C 2 0.5522848 1.8047379 1.0236893 1.4142135 1.4142135C 1.0236893 1.8047379 0.5522848 2 0 2C -0.5522848 2 -1.0236893 1.8047379 -1.4142135 1.4142135C -1.8047379 1.0236893 -2 0.5522848 -2 0C -2 -0.5522848 -1.8047379 -1.0236893 -1.4142135 -1.4142135C -1.0236893 -1.8047379 -0.5522848 -2 0 -2C 0.5522848 -2 1.0236893 -1.8047379 1.4142135 -1.4142135C 1.8047379 -1.0236893 2 -0.5522848 2 0C 2 0.023273421 1.999594 0.046539754 1.9987817 0.06979899" stroke="none" fill="#3370FF" fill-rule="nonzero" fill-opacity="0.14901961" />
    <path transform="matrix(-0.99997 -0.00777117 -0.00777117 0.99997 175.146 504.814)"  d="M2 0C 2 0.5522848 1.8047379 1.0236893 1.4142135 1.4142135C 1.0236893 1.8047379 0.5522848 2 0 2C -0.5522848 2 -1.0236893 1.8047379 -1.4142135 1.4142135C -1.8047379 1.0236893 -2 0.5522848 -2 0C -2 -0.5522848 -1.8047379 -1.0236893 -1.4142135 -1.4142135C -1.0236893 -1.8047379 -0.5522848 -2 0 -2C 0.5522848 -2 1.0236893 -1.8047379 1.4142135 -1.4142135C 1.8047379 -1.0236893 2 -0.5522848 2 0C 2 0.023273421 1.999594 0.046539754 1.9987817 0.06979899" stroke="none" fill="#3370FF" fill-rule="nonzero" fill-opacity="0.14901961" />
    <path transform="matrix(-0.99997 -0.00777117 -0.00777117 0.99997 175.198 491.016)"  d="M2 0C 2 0.5522848 1.8047379 1.0236893 1.4142135 1.4142135C 1.0236893 1.8047379 0.5522848 2 0 2C -0.5522848 2 -1.0236893 1.8047379 -1.4142135 1.4142135C -1.8047379 1.0236893 -2 0.5522848 -2 0C -2 -0.5522848 -1.8047379 -1.0236893 -1.4142135 -1.4142135C -1.0236893 -1.8047379 -0.5522848 -2 0 -2C 0.5522848 -2 1.0236893 -1.8047379 1.4142135 -1.4142135C 1.8047379 -1.0236893 2 -0.5522848 2 0C 2 0.023273421 1.999594 0.046539754 1.9987817 0.06979899" stroke="none" fill="#3370FF" fill-rule="nonzero" fill-opacity="0.14901961" />
    <path transform="matrix(0.00572777 -0.999984 -0.999984 -0.00572777 82.0114 418.011)"  d="M2 0C 2 0.5522848 1.8047379 1.0236893 1.4142135 1.4142135C 1.0236893 1.8047379 0.5522848 2 0 2C -0.5522848 2 -1.0236893 1.8047379 -1.4142135 1.4142135C -1.8047379 1.0236893 -2 0.5522848 -2 0C -2 -0.5522848 -1.8047379 -1.0236893 -1.4142135 -1.4142135C -1.0236893 -1.8047379 -0.5522848 -2 0 -2C 0.5522848 -2 1.0236893 -1.8047379 1.4142135 -1.4142135C 1.8047379 -1.0236893 2 -0.5522848 2 0C 2 0.023273421 1.999594 0.046539754 1.9987817 0.06979899" stroke="none" fill="#3370FF" fill-rule="nonzero" fill-opacity="0.14901961" />
    <path transform="matrix(0.00572777 -0.999984 -0.999984 -0.00572777 95.8104 418.034)"  d="M2 0C 2 0.5522848 1.8047379 1.0236893 1.4142135 1.4142135C 1.0236893 1.8047379 0.5522848 2 0 2C -0.5522848 2 -1.0236893 1.8047379 -1.4142135 1.4142135C -1.8047379 1.0236893 -2 0.5522848 -2 0C -2 -0.5522848 -1.8047379 -1.0236893 -1.4142135 -1.4142135C -1.0236893 -1.8047379 -0.5522848 -2 0 -2C 0.5522848 -2 1.0236893 -1.8047379 1.4142135 -1.4142135C 1.8047379 -1.0236893 2 -0.5522848 2 0C 2 0.023273421 1.999594 0.046539754 1.9987817 0.06979899" stroke="none" fill="#3370FF" fill-rule="nonzero" fill-opacity="0.14901961" />
    <path transform="matrix(0.00572777 -0.999984 -0.999984 -0.00572777 82.0114 404.011)"  d="M2 0C 2 0.5522848 1.8047379 1.0236893 1.4142135 1.4142135C 1.0236893 1.8047379 0.5522848 2 0 2C -0.5522848 2 -1.0236893 1.8047379 -1.4142135 1.4142135C -1.8047379 1.0236893 -2 0.5522848 -2 0C -2 -0.5522848 -1.8047379 -1.0236893 -1.4142135 -1.4142135C -1.0236893 -1.8047379 -0.5522848 -2 0 -2C 0.5522848 -2 1.0236893 -1.8047379 1.4142135 -1.4142135C 1.8047379 -1.0236893 2 -0.5522848 2 0C 2 0.023273421 1.999594 0.046539754 1.9987817 0.06979899" stroke="none" fill="#3370FF" fill-rule="nonzero" fill-opacity="0.14901961" />
    <path transform="matrix(0.00572777 -0.999984 -0.999984 -0.00572777 95.8104 404.034)"  d="M2 0C 2 0.5522848 1.8047379 1.0236893 1.4142135 1.4142135C 1.0236893 1.8047379 0.5522848 2 0 2C -0.5522848 2 -1.0236893 1.8047379 -1.4142135 1.4142135C -1.8047379 1.0236893 -2 0.5522848 -2 0C -2 -0.5522848 -1.8047379 -1.0236893 -1.4142135 -1.4142135C -1.0236893 -1.8047379 -0.5522848 -2 0 -2C 0.5522848 -2 1.0236893 -1.8047379 1.4142135 -1.4142135C 1.8047379 -1.0236893 2 -0.5522848 2 0C 2 0.023273421 1.999594 0.046539754 1.9987817 0.06979899" stroke="none" fill="#3370FF" fill-rule="nonzero" fill-opacity="0.14901961" />
    <path transform="matrix(0.00572777 -0.999984 -0.999984 -0.00572777 81.8104 544.034)"  d="M2 0C 2 0.5522848 1.8047379 1.0236893 1.4142135 1.4142135C 1.0236893 1.8047379 0.5522848 2 0 2C -0.5522848 2 -1.0236893 1.8047379 -1.4142135 1.4142135C -1.8047379 1.0236893 -2 0.5522848 -2 0C -2 -0.5522848 -1.8047379 -1.0236893 -1.4142135 -1.4142135C -1.0236893 -1.8047379 -0.5522848 -2 0 -2C 0.5522848 -2 1.0236893 -1.8047379 1.4142135 -1.4142135C 1.8047379 -1.0236893 2 -0.5522848 2 0C 2 0.023273421 1.999594 0.046539754 1.9987817 0.06979899" stroke="none" fill="#3370FF" fill-rule="nonzero" fill-opacity="0.14901961" />
    <path transform="matrix(0.00572777 -0.999984 -0.999984 -0.00572777 95.6093 544.057)"  d="M2 0C 2 0.5522848 1.8047379 1.0236893 1.4142135 1.4142135C 1.0236893 1.8047379 0.5522848 2 0 2C -0.5522848 2 -1.0236893 1.8047379 -1.4142135 1.4142135C -1.8047379 1.0236893 -2 0.5522848 -2 0C -2 -0.5522848 -1.8047379 -1.0236893 -1.4142135 -1.4142135C -1.0236893 -1.8047379 -0.5522848 -2 0 -2C 0.5522848 -2 1.0236893 -1.8047379 1.4142135 -1.4142135C 1.8047379 -1.0236893 2 -0.5522848 2 0C 2 0.023273421 1.999594 0.046539754 1.9987817 0.06979899" stroke="none" fill="#3370FF" fill-rule="nonzero" fill-opacity="0.14901961" />
    <path transform="matrix(0.00572777 -0.999984 -0.999984 -0.00572777 81.8104 530.034)"  d="M2 0C 2 0.5522848 1.8047379 1.0236893 1.4142135 1.4142135C 1.0236893 1.8047379 0.5522848 2 0 2C -0.5522848 2 -1.0236893 1.8047379 -1.4142135 1.4142135C -1.8047379 1.0236893 -2 0.5522848 -2 0C -2 -0.5522848 -1.8047379 -1.0236893 -1.4142135 -1.4142135C -1.0236893 -1.8047379 -0.5522848 -2 0 -2C 0.5522848 -2 1.0236893 -1.8047379 1.4142135 -1.4142135C 1.8047379 -1.0236893 2 -0.5522848 2 0C 2 0.023273421 1.999594 0.046539754 1.9987817 0.06979899" stroke="none" fill="#3370FF" fill-rule="nonzero" fill-opacity="0.14901961" />
    <path transform="matrix(0.00572777 -0.999984 -0.999984 -0.00572777 95.6093 530.057)"  d="M2 0C 2 0.5522848 1.8047379 1.0236893 1.4142135 1.4142135C 1.0236893 1.8047379 0.5522848 2 0 2C -0.5522848 2 -1.0236893 1.8047379 -1.4142135 1.4142135C -1.8047379 1.0236893 -2 0.5522848 -2 0C -2 -0.5522848 -1.8047379 -1.0236893 -1.4142135 -1.4142135C -1.0236893 -1.8047379 -0.5522848 -2 0 -2C 0.5522848 -2 1.0236893 -1.8047379 1.4142135 -1.4142135C 1.8047379 -1.0236893 2 -0.5522848 2 0C 2 0.023273421 1.999594 0.046539754 1.9987817 0.06979899" stroke="none" fill="#3370FF" fill-rule="nonzero" fill-opacity="0.14901961" />
    <path transform="matrix(0.00572777 -0.999984 -0.999984 -0.00572777 81.8104 516.034)"  d="M2 0C 2 0.5522848 1.8047379 1.0236893 1.4142135 1.4142135C 1.0236893 1.8047379 0.5522848 2 0 2C -0.5522848 2 -1.0236893 1.8047379 -1.4142135 1.4142135C -1.8047379 1.0236893 -2 0.5522848 -2 0C -2 -0.5522848 -1.8047379 -1.0236893 -1.4142135 -1.4142135C -1.0236893 -1.8047379 -0.5522848 -2 0 -2C 0.5522848 -2 1.0236893 -1.8047379 1.4142135 -1.4142135C 1.8047379 -1.0236893 2 -0.5522848 2 0C 2 0.023273421 1.999594 0.046539754 1.9987817 0.06979899" stroke="none" fill="#3370FF" fill-rule="nonzero" fill-opacity="0.14901961" />
    <path transform="matrix(0.00572777 -0.999984 -0.999984 -0.00572777 95.6093 516.057)"  d="M2 0C 2 0.5522848 1.8047379 1.0236893 1.4142135 1.4142135C 1.0236893 1.8047379 0.5522848 2 0 2C -0.5522848 2 -1.0236893 1.8047379 -1.4142135 1.4142135C -1.8047379 1.0236893 -2 0.5522848 -2 0C -2 -0.5522848 -1.8047379 -1.0236893 -1.4142135 -1.4142135C -1.0236893 -1.8047379 -0.5522848 -2 0 -2C 0.5522848 -2 1.0236893 -1.8047379 1.4142135 -1.4142135C 1.8047379 -1.0236893 2 -0.5522848 2 0C 2 0.023273421 1.999594 0.046539754 1.9987817 0.06979899" stroke="none" fill="#3370FF" fill-rule="nonzero" fill-opacity="0.14901961" />
    <path transform="matrix(0.00572777 -0.999984 -0.999984 -0.00572777 81.8104 502.034)"  d="M2 0C 2 0.5522848 1.8047379 1.0236893 1.4142135 1.4142135C 1.0236893 1.8047379 0.5522848 2 0 2C -0.5522848 2 -1.0236893 1.8047379 -1.4142135 1.4142135C -1.8047379 1.0236893 -2 0.5522848 -2 0C -2 -0.5522848 -1.8047379 -1.0236893 -1.4142135 -1.4142135C -1.0236893 -1.8047379 -0.5522848 -2 0 -2C 0.5522848 -2 1.0236893 -1.8047379 1.4142135 -1.4142135C 1.8047379 -1.0236893 2 -0.5522848 2 0C 2 0.023273421 1.999594 0.046539754 1.9987817 0.06979899" stroke="none" fill="#3370FF" fill-rule="nonzero" fill-opacity="0.14901961" />
    <path transform="matrix(0.00572777 -0.999984 -0.999984 -0.00572777 95.6093 502.057)"  d="M2 0C 2 0.5522848 1.8047379 1.0236893 1.4142135 1.4142135C 1.0236893 1.8047379 0.5522848 2 0 2C -0.5522848 2 -1.0236893 1.8047379 -1.4142135 1.4142135C -1.8047379 1.0236893 -2 0.5522848 -2 0C -2 -0.5522848 -1.8047379 -1.0236893 -1.4142135 -1.4142135C -1.0236893 -1.8047379 -0.5522848 -2 0 -2C 0.5522848 -2 1.0236893 -1.8047379 1.4142135 -1.4142135C 1.8047379 -1.0236893 2 -0.5522848 2 0C 2 0.023273421 1.999594 0.046539754 1.9987817 0.06979899" stroke="none" fill="#3370FF" fill-rule="nonzero" fill-opacity="0.14901961" />
    <path transform="matrix(0.00572777 -0.999984 -0.999984 -0.00572777 81.8104 488.034)"  d="M2 0C 2 0.5522848 1.8047379 1.0236893 1.4142135 1.4142135C 1.0236893 1.8047379 0.5522848 2 0 2C -0.5522848 2 -1.0236893 1.8047379 -1.4142135 1.4142135C -1.8047379 1.0236893 -2 0.5522848 -2 0C -2 -0.5522848 -1.8047379 -1.0236893 -1.4142135 -1.4142135C -1.0236893 -1.8047379 -0.5522848 -2 0 -2C 0.5522848 -2 1.0236893 -1.8047379 1.4142135 -1.4142135C 1.8047379 -1.0236893 2 -0.5522848 2 0C 2 0.023273421 1.999594 0.046539754 1.9987817 0.06979899" stroke="none" fill="#3370FF" fill-rule="nonzero" fill-opacity="0.14901961" />
    <path transform="matrix(0.00572777 -0.999984 -0.999984 -0.00572777 95.6093 488.057)"  d="M2 0C 2 0.5522848 1.8047379 1.0236893 1.4142135 1.4142135C 1.0236893 1.8047379 0.5522848 2 0 2C -0.5522848 2 -1.0236893 1.8047379 -1.4142135 1.4142135C -1.8047379 1.0236893 -2 0.5522848 -2 0C -2 -0.5522848 -1.8047379 -1.0236893 -1.4142135 -1.4142135C -1.0236893 -1.8047379 -0.5522848 -2 0 -2C 0.5522848 -2 1.0236893 -1.8047379 1.4142135 -1.4142135C 1.8047379 -1.0236893 2 -0.5522848 2 0C 2 0.023273421 1.999594 0.046539754 1.9987817 0.06979899" stroke="none" fill="#3370FF" fill-rule="nonzero" fill-opacity="0.14901961" />
    <path transform="matrix(0.00572777 -0.999984 -0.999984 -0.00572777 81.8104 474.034)"  d="M2 0C 2 0.5522848 1.8047379 1.0236893 1.4142135 1.4142135C 1.0236893 1.8047379 0.5522848 2 0 2C -0.5522848 2 -1.0236893 1.8047379 -1.4142135 1.4142135C -1.8047379 1.0236893 -2 0.5522848 -2 0C -2 -0.5522848 -1.8047379 -1.0236893 -1.4142135 -1.4142135C -1.0236893 -1.8047379 -0.5522848 -2 0 -2C 0.5522848 -2 1.0236893 -1.8047379 1.4142135 -1.4142135C 1.8047379 -1.0236893 2 -0.5522848 2 0C 2 0.023273421 1.999594 0.046539754 1.9987817 0.06979899" stroke="none" fill="#3370FF" fill-rule="nonzero" fill-opacity="0.14901961" />
    <path transform="matrix(0.00572777 -0.999984 -0.999984 -0.00572777 95.6093 474.057)"  d="M2 0C 2 0.5522848 1.8047379 1.0236893 1.4142135 1.4142135C 1.0236893 1.8047379 0.5522848 2 0 2C -0.5522848 2 -1.0236893 1.8047379 -1.4142135 1.4142135C -1.8047379 1.0236893 -2 0.5522848 -2 0C -2 -0.5522848 -1.8047379 -1.0236893 -1.4142135 -1.4142135C -1.0236893 -1.8047379 -0.5522848 -2 0 -2C 0.5522848 -2 1.0236893 -1.8047379 1.4142135 -1.4142135C 1.8047379 -1.0236893 2 -0.5522848 2 0C 2 0.023273421 1.999594 0.046539754 1.9987817 0.06979899" stroke="none" fill="#3370FF" fill-rule="nonzero" fill-opacity="0.14901961" />
    <path transform="matrix(0.00572777 -0.999984 -0.999984 -0.00572777 81.8104 460.034)"  d="M2 0C 2 0.5522848 1.8047379 1.0236893 1.4142135 1.4142135C 1.0236893 1.8047379 0.5522848 2 0 2C -0.5522848 2 -1.0236893 1.8047379 -1.4142135 1.4142135C -1.8047379 1.0236893 -2 0.5522848 -2 0C -2 -0.5522848 -1.8047379 -1.0236893 -1.4142135 -1.4142135C -1.0236893 -1.8047379 -0.5522848 -2 0 -2C 0.5522848 -2 1.0236893 -1.8047379 1.4142135 -1.4142135C 1.8047379 -1.0236893 2 -0.5522848 2 0C 2 0.023273421 1.999594 0.046539754 1.9987817 0.06979899" stroke="none" fill="#3370FF" fill-rule="nonzero" fill-opacity="0.14901961" />
    <path transform="matrix(0.00572777 -0.999984 -0.999984 -0.00572777 95.6093 460.057)"  d="M2 0C 2 0.5522848 1.8047379 1.0236893 1.4142135 1.4142135C 1.0236893 1.8047379 0.5522848 2 0 2C -0.5522848 2 -1.0236893 1.8047379 -1.4142135 1.4142135C -1.8047379 1.0236893 -2 0.5522848 -2 0C -2 -0.5522848 -1.8047379 -1.0236893 -1.4142135 -1.4142135C -1.0236893 -1.8047379 -0.5522848 -2 0 -2C 0.5522848 -2 1.0236893 -1.8047379 1.4142135 -1.4142135C 1.8047379 -1.0236893 2 -0.5522848 2 0C 2 0.023273421 1.999594 0.046539754 1.9987817 0.06979899" stroke="none" fill="#3370FF" fill-rule="nonzero" fill-opacity="0.14901961" />
    <path transform="matrix(0.00572777 -0.999984 -0.999984 -0.00572777 81.8104 446.034)"  d="M2 0C 2 0.5522848 1.8047379 1.0236893 1.4142135 1.4142135C 1.0236893 1.8047379 0.5522848 2 0 2C -0.5522848 2 -1.0236893 1.8047379 -1.4142135 1.4142135C -1.8047379 1.0236893 -2 0.5522848 -2 0C -2 -0.5522848 -1.8047379 -1.0236893 -1.4142135 -1.4142135C -1.0236893 -1.8047379 -0.5522848 -2 0 -2C 0.5522848 -2 1.0236893 -1.8047379 1.4142135 -1.4142135C 1.8047379 -1.0236893 2 -0.5522848 2 0C 2 0.023273421 1.999594 0.046539754 1.9987817 0.06979899" stroke="none" fill="#3370FF" fill-rule="nonzero" fill-opacity="0.14901961" />
    <path transform="matrix(0.00572777 -0.999984 -0.999984 -0.00572777 95.6093 446.057)"  d="M2 0C 2 0.5522848 1.8047379 1.0236893 1.4142135 1.4142135C 1.0236893 1.8047379 0.5522848 2 0 2C -0.5522848 2 -1.0236893 1.8047379 -1.4142135 1.4142135C -1.8047379 1.0236893 -2 0.5522848 -2 0C -2 -0.5522848 -1.8047379 -1.0236893 -1.4142135 -1.4142135C -1.0236893 -1.8047379 -0.5522848 -2 0 -2C 0.5522848 -2 1.0236893 -1.8047379 1.4142135 -1.4142135C 1.8047379 -1.0236893 2 -0.5522848 2 0C 2 0.023273421 1.999594 0.046539754 1.9987817 0.06979899" stroke="none" fill="#3370FF" fill-rule="nonzero" fill-opacity="0.14901961" />
    <path transform="matrix(0.00572777 -0.999984 -0.999984 -0.00572777 81.8104 432.034)"  d="M2 0C 2 0.5522848 1.8047379 1.0236893 1.4142135 1.4142135C 1.0236893 1.8047379 0.5522848 2 0 2C -0.5522848 2 -1.0236893 1.8047379 -1.4142135 1.4142135C -1.8047379 1.0236893 -2 0.5522848 -2 0C -2 -0.5522848 -1.8047379 -1.0236893 -1.4142135 -1.4142135C -1.0236893 -1.8047379 -0.5522848 -2 0 -2C 0.5522848 -2 1.0236893 -1.8047379 1.4142135 -1.4142135C 1.8047379 -1.0236893 2 -0.5522848 2 0C 2 0.023273421 1.999594 0.046539754 1.9987817 0.06979899" stroke="none" fill="#3370FF" fill-rule="nonzero" fill-opacity="0.14901961" />
    <path transform="matrix(0.00572777 -0.999984 -0.999984 -0.00572777 95.6093 432.057)"  d="M2 0C 2 0.5522848 1.8047379 1.0236893 1.4142135 1.4142135C 1.0236893 1.8047379 0.5522848 2 0 2C -0.5522848 2 -1.0236893 1.8047379 -1.4142135 1.4142135C -1.8047379 1.0236893 -2 0.5522848 -2 0C -2 -0.5522848 -1.8047379 -1.0236893 -1.4142135 -1.4142135C -1.0236893 -1.8047379 -0.5522848 -2 0 -2C 0.5522848 -2 1.0236893 -1.8047379 1.4142135 -1.4142135C 1.8047379 -1.0236893 2 -0.5522848 2 0C 2 0.023273421 1.999594 0.046539754 1.9987817 0.06979899" stroke="none" fill="#3370FF" fill-rule="nonzero" fill-opacity="0.14901961" />
    <path transform="matrix(0.00572777 -0.999984 -0.999984 -0.00572777 55.0114 558.011)"  d="M2 0C 2 0.5522848 1.8047379 1.0236893 1.4142135 1.4142135C 1.0236893 1.8047379 0.5522848 2 0 2C -0.5522848 2 -1.0236893 1.8047379 -1.4142135 1.4142135C -1.8047379 1.0236893 -2 0.5522848 -2 0C -2 -0.5522848 -1.8047379 -1.0236893 -1.4142135 -1.4142135C -1.0236893 -1.8047379 -0.5522848 -2 0 -2C 0.5522848 -2 1.0236893 -1.8047379 1.4142135 -1.4142135C 1.8047379 -1.0236893 2 -0.5522848 2 0C 2 0.023273421 1.999594 0.046539754 1.9987817 0.06979899" stroke="none" fill="#3370FF" fill-rule="nonzero" fill-opacity="0.14901961" />
    <path transform="matrix(0.00572777 -0.999984 -0.999984 -0.00572777 68.8104 558.034)"  d="M2 0C 2 0.5522848 1.8047379 1.0236893 1.4142135 1.4142135C 1.0236893 1.8047379 0.5522848 2 0 2C -0.5522848 2 -1.0236893 1.8047379 -1.4142135 1.4142135C -1.8047379 1.0236893 -2 0.5522848 -2 0C -2 -0.5522848 -1.8047379 -1.0236893 -1.4142135 -1.4142135C -1.0236893 -1.8047379 -0.5522848 -2 0 -2C 0.5522848 -2 1.0236893 -1.8047379 1.4142135 -1.4142135C 1.8047379 -1.0236893 2 -0.5522848 2 0C 2 0.023273421 1.999594 0.046539754 1.9987817 0.06979899" stroke="none" fill="#3370FF" fill-rule="nonzero" fill-opacity="0.14901961" />
    <path transform="matrix(-0.99997 -0.00777117 -0.00777117 0.99997 162.091 531.814)"  d="M2 0C 2 0.5522848 1.8047379 1.0236893 1.4142135 1.4142135C 1.0236893 1.8047379 0.5522848 2 0 2C -0.5522848 2 -1.0236893 1.8047379 -1.4142135 1.4142135C -1.8047379 1.0236893 -2 0.5522848 -2 0C -2 -0.5522848 -1.8047379 -1.0236893 -1.4142135 -1.4142135C -1.0236893 -1.8047379 -0.5522848 -2 0 -2C 0.5522848 -2 1.0236893 -1.8047379 1.4142135 -1.4142135C 1.8047379 -1.0236893 2 -0.5522848 2 0C 2 0.023273421 1.999594 0.046539754 1.9987817 0.06979899" stroke="none" fill="#3370FF" fill-rule="nonzero" fill-opacity="0.14901961" />
    <path transform="matrix(-0.99997 -0.00777117 -0.00777117 0.99997 162.142 518.015)"  d="M2 0C 2 0.5522848 1.8047379 1.0236893 1.4142135 1.4142135C 1.0236893 1.8047379 0.5522848 2 0 2C -0.5522848 2 -1.0236893 1.8047379 -1.4142135 1.4142135C -1.8047379 1.0236893 -2 0.5522848 -2 0C -2 -0.5522848 -1.8047379 -1.0236893 -1.4142135 -1.4142135C -1.0236893 -1.8047379 -0.5522848 -2 0 -2C 0.5522848 -2 1.0236893 -1.8047379 1.4142135 -1.4142135C 1.8047379 -1.0236893 2 -0.5522848 2 0C 2 0.023273421 1.999594 0.046539754 1.9987817 0.06979899" stroke="none" fill="#3370FF" fill-rule="nonzero" fill-opacity="0.14901961" />
    <path transform="matrix(-0.99997 -0.00777117 -0.00777117 0.99997 175.091 531.814)"  d="M2 0C 2 0.5522848 1.8047379 1.0236893 1.4142135 1.4142135C 1.0236893 1.8047379 0.5522848 2 0 2C -0.5522848 2 -1.0236893 1.8047379 -1.4142135 1.4142135C -1.8047379 1.0236893 -2 0.5522848 -2 0C -2 -0.5522848 -1.8047379 -1.0236893 -1.4142135 -1.4142135C -1.0236893 -1.8047379 -0.5522848 -2 0 -2C 0.5522848 -2 1.0236893 -1.8047379 1.4142135 -1.4142135C 1.8047379 -1.0236893 2 -0.5522848 2 0C 2 0.023273421 1.999594 0.046539754 1.9987817 0.06979899" stroke="none" fill="#3370FF" fill-rule="nonzero" fill-opacity="0.14901961" />
    <path transform="matrix(-0.99997 -0.00777117 -0.00777117 0.99997 175.142 518.015)"  d="M2 0C 2 0.5522848 1.8047379 1.0236893 1.4142135 1.4142135C 1.0236893 1.8047379 0.5522848 2 0 2C -0.5522848 2 -1.0236893 1.8047379 -1.4142135 1.4142135C -1.8047379 1.0236893 -2 0.5522848 -2 0C -2 -0.5522848 -1.8047379 -1.0236893 -1.4142135 -1.4142135C -1.0236893 -1.8047379 -0.5522848 -2 0 -2C 0.5522848 -2 1.0236893 -1.8047379 1.4142135 -1.4142135C 1.8047379 -1.0236893 2 -0.5522848 2 0C 2 0.023273421 1.999594 0.046539754 1.9987817 0.06979899" stroke="none" fill="#3370FF" fill-rule="nonzero" fill-opacity="0.14901961" />
    <path transform="matrix(0.00572777 -0.999984 -0.999984 -0.00572777 55.0114 418.011)"  d="M2 0C 2 0.5522848 1.8047379 1.0236893 1.4142135 1.4142135C 1.0236893 1.8047379 0.5522848 2 0 2C -0.5522848 2 -1.0236893 1.8047379 -1.4142135 1.4142135C -1.8047379 1.0236893 -2 0.5522848 -2 0C -2 -0.5522848 -1.8047379 -1.0236893 -1.4142135 -1.4142135C -1.0236893 -1.8047379 -0.5522848 -2 0 -2C 0.5522848 -2 1.0236893 -1.8047379 1.4142135 -1.4142135C 1.8047379 -1.0236893 2 -0.5522848 2 0C 2 0.023273421 1.999594 0.046539754 1.9987817 0.06979899" stroke="none" fill="#3370FF" fill-rule="nonzero" fill-opacity="0.14901961" />
    <path transform="matrix(0.00572777 -0.999984 -0.999984 -0.00572777 68.8104 418.034)"  d="M2 0C 2 0.5522848 1.8047379 1.0236893 1.4142135 1.4142135C 1.0236893 1.8047379 0.5522848 2 0 2C -0.5522848 2 -1.0236893 1.8047379 -1.4142135 1.4142135C -1.8047379 1.0236893 -2 0.5522848 -2 0C -2 -0.5522848 -1.8047379 -1.0236893 -1.4142135 -1.4142135C -1.0236893 -1.8047379 -0.5522848 -2 0 -2C 0.5522848 -2 1.0236893 -1.8047379 1.4142135 -1.4142135C 1.8047379 -1.0236893 2 -0.5522848 2 0C 2 0.023273421 1.999594 0.046539754 1.9987817 0.06979899" stroke="none" fill="#3370FF" fill-rule="nonzero" fill-opacity="0.14901961" />
    <path transform="matrix(0.00572777 -0.999984 -0.999984 -0.00572777 55.0114 404.011)"  d="M2 0C 2 0.5522848 1.8047379 1.0236893 1.4142135 1.4142135C 1.0236893 1.8047379 0.5522848 2 0 2C -0.5522848 2 -1.0236893 1.8047379 -1.4142135 1.4142135C -1.8047379 1.0236893 -2 0.5522848 -2 0C -2 -0.5522848 -1.8047379 -1.0236893 -1.4142135 -1.4142135C -1.0236893 -1.8047379 -0.5522848 -2 0 -2C 0.5522848 -2 1.0236893 -1.8047379 1.4142135 -1.4142135C 1.8047379 -1.0236893 2 -0.5522848 2 0C 2 0.023273421 1.999594 0.046539754 1.9987817 0.06979899" stroke="none" fill="#3370FF" fill-rule="nonzero" fill-opacity="0.14901961" />
    <path transform="matrix(0.00572777 -0.999984 -0.999984 -0.00572777 68.8104 404.034)"  d="M2 0C 2 0.5522848 1.8047379 1.0236893 1.4142135 1.4142135C 1.0236893 1.8047379 0.5522848 2 0 2C -0.5522848 2 -1.0236893 1.8047379 -1.4142135 1.4142135C -1.8047379 1.0236893 -2 0.5522848 -2 0C -2 -0.5522848 -1.8047379 -1.0236893 -1.4142135 -1.4142135C -1.0236893 -1.8047379 -0.5522848 -2 0 -2C 0.5522848 -2 1.0236893 -1.8047379 1.4142135 -1.4142135C 1.8047379 -1.0236893 2 -0.5522848 2 0C 2 0.023273421 1.999594 0.046539754 1.9987817 0.06979899" stroke="none" fill="#3370FF" fill-rule="nonzero" fill-opacity="0.14901961" />
    <path transform="matrix(0.00572777 -0.999984 -0.999984 -0.00572777 54.8104 544.034)"  d="M2 0C 2 0.5522848 1.8047379 1.0236893 1.4142135 1.4142135C 1.0236893 1.8047379 0.5522848 2 0 2C -0.5522848 2 -1.0236893 1.8047379 -1.4142135 1.4142135C -1.8047379 1.0236893 -2 0.5522848 -2 0C -2 -0.5522848 -1.8047379 -1.0236893 -1.4142135 -1.4142135C -1.0236893 -1.8047379 -0.5522848 -2 0 -2C 0.5522848 -2 1.0236893 -1.8047379 1.4142135 -1.4142135C 1.8047379 -1.0236893 2 -0.5522848 2 0C 2 0.023273421 1.999594 0.046539754 1.9987817 0.06979899" stroke="none" fill="#3370FF" fill-rule="nonzero" fill-opacity="0.14901961" />
    <path transform="matrix(0.00572777 -0.999984 -0.999984 -0.00572777 68.6093 544.057)"  d="M2 0C 2 0.5522848 1.8047379 1.0236893 1.4142135 1.4142135C 1.0236893 1.8047379 0.5522848 2 0 2C -0.5522848 2 -1.0236893 1.8047379 -1.4142135 1.4142135C -1.8047379 1.0236893 -2 0.5522848 -2 0C -2 -0.5522848 -1.8047379 -1.0236893 -1.4142135 -1.4142135C -1.0236893 -1.8047379 -0.5522848 -2 0 -2C 0.5522848 -2 1.0236893 -1.8047379 1.4142135 -1.4142135C 1.8047379 -1.0236893 2 -0.5522848 2 0C 2 0.023273421 1.999594 0.046539754 1.9987817 0.06979899" stroke="none" fill="#3370FF" fill-rule="nonzero" fill-opacity="0.14901961" />
    <path transform="matrix(0.00572777 -0.999984 -0.999984 -0.00572777 54.8104 530.034)"  d="M2 0C 2 0.5522848 1.8047379 1.0236893 1.4142135 1.4142135C 1.0236893 1.8047379 0.5522848 2 0 2C -0.5522848 2 -1.0236893 1.8047379 -1.4142135 1.4142135C -1.8047379 1.0236893 -2 0.5522848 -2 0C -2 -0.5522848 -1.8047379 -1.0236893 -1.4142135 -1.4142135C -1.0236893 -1.8047379 -0.5522848 -2 0 -2C 0.5522848 -2 1.0236893 -1.8047379 1.4142135 -1.4142135C 1.8047379 -1.0236893 2 -0.5522848 2 0C 2 0.023273421 1.999594 0.046539754 1.9987817 0.06979899" stroke="none" fill="#3370FF" fill-rule="nonzero" fill-opacity="0.14901961" />
    <path transform="matrix(0.00572777 -0.999984 -0.999984 -0.00572777 68.6093 530.057)"  d="M2 0C 2 0.5522848 1.8047379 1.0236893 1.4142135 1.4142135C 1.0236893 1.8047379 0.5522848 2 0 2C -0.5522848 2 -1.0236893 1.8047379 -1.4142135 1.4142135C -1.8047379 1.0236893 -2 0.5522848 -2 0C -2 -0.5522848 -1.8047379 -1.0236893 -1.4142135 -1.4142135C -1.0236893 -1.8047379 -0.5522848 -2 0 -2C 0.5522848 -2 1.0236893 -1.8047379 1.4142135 -1.4142135C 1.8047379 -1.0236893 2 -0.5522848 2 0C 2 0.023273421 1.999594 0.046539754 1.9987817 0.06979899" stroke="none" fill="#3370FF" fill-rule="nonzero" fill-opacity="0.14901961" />
    <path transform="matrix(0.00572777 -0.999984 -0.999984 -0.00572777 54.8104 516.034)"  d="M2 0C 2 0.5522848 1.8047379 1.0236893 1.4142135 1.4142135C 1.0236893 1.8047379 0.5522848 2 0 2C -0.5522848 2 -1.0236893 1.8047379 -1.4142135 1.4142135C -1.8047379 1.0236893 -2 0.5522848 -2 0C -2 -0.5522848 -1.8047379 -1.0236893 -1.4142135 -1.4142135C -1.0236893 -1.8047379 -0.5522848 -2 0 -2C 0.5522848 -2 1.0236893 -1.8047379 1.4142135 -1.4142135C 1.8047379 -1.0236893 2 -0.5522848 2 0C 2 0.023273421 1.999594 0.046539754 1.9987817 0.06979899" stroke="none" fill="#3370FF" fill-rule="nonzero" fill-opacity="0.14901961" />
    <path transform="matrix(0.00572777 -0.999984 -0.999984 -0.00572777 68.6093 516.057)"  d="M2 0C 2 0.5522848 1.8047379 1.0236893 1.4142135 1.4142135C 1.0236893 1.8047379 0.5522848 2 0 2C -0.5522848 2 -1.0236893 1.8047379 -1.4142135 1.4142135C -1.8047379 1.0236893 -2 0.5522848 -2 0C -2 -0.5522848 -1.8047379 -1.0236893 -1.4142135 -1.4142135C -1.0236893 -1.8047379 -0.5522848 -2 0 -2C 0.5522848 -2 1.0236893 -1.8047379 1.4142135 -1.4142135C 1.8047379 -1.0236893 2 -0.5522848 2 0C 2 0.023273421 1.999594 0.046539754 1.9987817 0.06979899" stroke="none" fill="#3370FF" fill-rule="nonzero" fill-opacity="0.14901961" />
    <path transform="matrix(0.00572777 -0.999984 -0.999984 -0.00572777 54.8104 502.034)"  d="M2 0C 2 0.5522848 1.8047379 1.0236893 1.4142135 1.4142135C 1.0236893 1.8047379 0.5522848 2 0 2C -0.5522848 2 -1.0236893 1.8047379 -1.4142135 1.4142135C -1.8047379 1.0236893 -2 0.5522848 -2 0C -2 -0.5522848 -1.8047379 -1.0236893 -1.4142135 -1.4142135C -1.0236893 -1.8047379 -0.5522848 -2 0 -2C 0.5522848 -2 1.0236893 -1.8047379 1.4142135 -1.4142135C 1.8047379 -1.0236893 2 -0.5522848 2 0C 2 0.023273421 1.999594 0.046539754 1.9987817 0.06979899" stroke="none" fill="#3370FF" fill-rule="nonzero" fill-opacity="0.14901961" />
    <path transform="matrix(0.00572777 -0.999984 -0.999984 -0.00572777 68.6093 502.057)"  d="M2 0C 2 0.5522848 1.8047379 1.0236893 1.4142135 1.4142135C 1.0236893 1.8047379 0.5522848 2 0 2C -0.5522848 2 -1.0236893 1.8047379 -1.4142135 1.4142135C -1.8047379 1.0236893 -2 0.5522848 -2 0C -2 -0.5522848 -1.8047379 -1.0236893 -1.4142135 -1.4142135C -1.0236893 -1.8047379 -0.5522848 -2 0 -2C 0.5522848 -2 1.0236893 -1.8047379 1.4142135 -1.4142135C 1.8047379 -1.0236893 2 -0.5522848 2 0C 2 0.023273421 1.999594 0.046539754 1.9987817 0.06979899" stroke="none" fill="#3370FF" fill-rule="nonzero" fill-opacity="0.14901961" />
    <path transform="matrix(0.00572777 -0.999984 -0.999984 -0.00572777 54.8104 488.034)"  d="M2 0C 2 0.5522848 1.8047379 1.0236893 1.4142135 1.4142135C 1.0236893 1.8047379 0.5522848 2 0 2C -0.5522848 2 -1.0236893 1.8047379 -1.4142135 1.4142135C -1.8047379 1.0236893 -2 0.5522848 -2 0C -2 -0.5522848 -1.8047379 -1.0236893 -1.4142135 -1.4142135C -1.0236893 -1.8047379 -0.5522848 -2 0 -2C 0.5522848 -2 1.0236893 -1.8047379 1.4142135 -1.4142135C 1.8047379 -1.0236893 2 -0.5522848 2 0C 2 0.023273421 1.999594 0.046539754 1.9987817 0.06979899" stroke="none" fill="#3370FF" fill-rule="nonzero" fill-opacity="0.14901961" />
    <path transform="matrix(0.00572777 -0.999984 -0.999984 -0.00572777 68.6093 488.057)"  d="M2 0C 2 0.5522848 1.8047379 1.0236893 1.4142135 1.4142135C 1.0236893 1.8047379 0.5522848 2 0 2C -0.5522848 2 -1.0236893 1.8047379 -1.4142135 1.4142135C -1.8047379 1.0236893 -2 0.5522848 -2 0C -2 -0.5522848 -1.8047379 -1.0236893 -1.4142135 -1.4142135C -1.0236893 -1.8047379 -0.5522848 -2 0 -2C 0.5522848 -2 1.0236893 -1.8047379 1.4142135 -1.4142135C 1.8047379 -1.0236893 2 -0.5522848 2 0C 2 0.023273421 1.999594 0.046539754 1.9987817 0.06979899" stroke="none" fill="#3370FF" fill-rule="nonzero" fill-opacity="0.14901961" />
    <path transform="matrix(0.00572777 -0.999984 -0.999984 -0.00572777 54.8104 474.034)"  d="M2 0C 2 0.5522848 1.8047379 1.0236893 1.4142135 1.4142135C 1.0236893 1.8047379 0.5522848 2 0 2C -0.5522848 2 -1.0236893 1.8047379 -1.4142135 1.4142135C -1.8047379 1.0236893 -2 0.5522848 -2 0C -2 -0.5522848 -1.8047379 -1.0236893 -1.4142135 -1.4142135C -1.0236893 -1.8047379 -0.5522848 -2 0 -2C 0.5522848 -2 1.0236893 -1.8047379 1.4142135 -1.4142135C 1.8047379 -1.0236893 2 -0.5522848 2 0C 2 0.023273421 1.999594 0.046539754 1.9987817 0.06979899" stroke="none" fill="#3370FF" fill-rule="nonzero" fill-opacity="0.14901961" />
    <path transform="matrix(0.00572777 -0.999984 -0.999984 -0.00572777 68.6093 474.057)"  d="M2 0C 2 0.5522848 1.8047379 1.0236893 1.4142135 1.4142135C 1.0236893 1.8047379 0.5522848 2 0 2C -0.5522848 2 -1.0236893 1.8047379 -1.4142135 1.4142135C -1.8047379 1.0236893 -2 0.5522848 -2 0C -2 -0.5522848 -1.8047379 -1.0236893 -1.4142135 -1.4142135C -1.0236893 -1.8047379 -0.5522848 -2 0 -2C 0.5522848 -2 1.0236893 -1.8047379 1.4142135 -1.4142135C 1.8047379 -1.0236893 2 -0.5522848 2 0C 2 0.023273421 1.999594 0.046539754 1.9987817 0.06979899" stroke="none" fill="#3370FF" fill-rule="nonzero" fill-opacity="0.14901961" />
    <path transform="matrix(0.00572777 -0.999984 -0.999984 -0.00572777 54.8104 460.034)"  d="M2 0C 2 0.5522848 1.8047379 1.0236893 1.4142135 1.4142135C 1.0236893 1.8047379 0.5522848 2 0 2C -0.5522848 2 -1.0236893 1.8047379 -1.4142135 1.4142135C -1.8047379 1.0236893 -2 0.5522848 -2 0C -2 -0.5522848 -1.8047379 -1.0236893 -1.4142135 -1.4142135C -1.0236893 -1.8047379 -0.5522848 -2 0 -2C 0.5522848 -2 1.0236893 -1.8047379 1.4142135 -1.4142135C 1.8047379 -1.0236893 2 -0.5522848 2 0C 2 0.023273421 1.999594 0.046539754 1.9987817 0.06979899" stroke="none" fill="#3370FF" fill-rule="nonzero" fill-opacity="0.14901961" />
    <path transform="matrix(0.00572777 -0.999984 -0.999984 -0.00572777 68.6093 460.057)"  d="M2 0C 2 0.5522848 1.8047379 1.0236893 1.4142135 1.4142135C 1.0236893 1.8047379 0.5522848 2 0 2C -0.5522848 2 -1.0236893 1.8047379 -1.4142135 1.4142135C -1.8047379 1.0236893 -2 0.5522848 -2 0C -2 -0.5522848 -1.8047379 -1.0236893 -1.4142135 -1.4142135C -1.0236893 -1.8047379 -0.5522848 -2 0 -2C 0.5522848 -2 1.0236893 -1.8047379 1.4142135 -1.4142135C 1.8047379 -1.0236893 2 -0.5522848 2 0C 2 0.023273421 1.999594 0.046539754 1.9987817 0.06979899" stroke="none" fill="#3370FF" fill-rule="nonzero" fill-opacity="0.14901961" />
    <path transform="matrix(0.00572777 -0.999984 -0.999984 -0.00572777 54.8104 446.034)"  d="M2 0C 2 0.5522848 1.8047379 1.0236893 1.4142135 1.4142135C 1.0236893 1.8047379 0.5522848 2 0 2C -0.5522848 2 -1.0236893 1.8047379 -1.4142135 1.4142135C -1.8047379 1.0236893 -2 0.5522848 -2 0C -2 -0.5522848 -1.8047379 -1.0236893 -1.4142135 -1.4142135C -1.0236893 -1.8047379 -0.5522848 -2 0 -2C 0.5522848 -2 1.0236893 -1.8047379 1.4142135 -1.4142135C 1.8047379 -1.0236893 2 -0.5522848 2 0C 2 0.023273421 1.999594 0.046539754 1.9987817 0.06979899" stroke="none" fill="#3370FF" fill-rule="nonzero" fill-opacity="0.14901961" />
    <path transform="matrix(0.00572777 -0.999984 -0.999984 -0.00572777 68.6093 446.057)"  d="M2 0C 2 0.5522848 1.8047379 1.0236893 1.4142135 1.4142135C 1.0236893 1.8047379 0.5522848 2 0 2C -0.5522848 2 -1.0236893 1.8047379 -1.4142135 1.4142135C -1.8047379 1.0236893 -2 0.5522848 -2 0C -2 -0.5522848 -1.8047379 -1.0236893 -1.4142135 -1.4142135C -1.0236893 -1.8047379 -0.5522848 -2 0 -2C 0.5522848 -2 1.0236893 -1.8047379 1.4142135 -1.4142135C 1.8047379 -1.0236893 2 -0.5522848 2 0C 2 0.023273421 1.999594 0.046539754 1.9987817 0.06979899" stroke="none" fill="#3370FF" fill-rule="nonzero" fill-opacity="0.14901961" />
    <path transform="matrix(0.00572777 -0.999984 -0.999984 -0.00572777 54.8104 432.034)"  d="M2 0C 2 0.5522848 1.8047379 1.0236893 1.4142135 1.4142135C 1.0236893 1.8047379 0.5522848 2 0 2C -0.5522848 2 -1.0236893 1.8047379 -1.4142135 1.4142135C -1.8047379 1.0236893 -2 0.5522848 -2 0C -2 -0.5522848 -1.8047379 -1.0236893 -1.4142135 -1.4142135C -1.0236893 -1.8047379 -0.5522848 -2 0 -2C 0.5522848 -2 1.0236893 -1.8047379 1.4142135 -1.4142135C 1.8047379 -1.0236893 2 -0.5522848 2 0C 2 0.023273421 1.999594 0.046539754 1.9987817 0.06979899" stroke="none" fill="#3370FF" fill-rule="nonzero" fill-opacity="0.14901961" />
    <path transform="matrix(0.00572777 -0.999984 -0.999984 -0.00572777 68.6093 432.057)"  d="M2 0C 2 0.5522848 1.8047379 1.0236893 1.4142135 1.4142135C 1.0236893 1.8047379 0.5522848 2 0 2C -0.5522848 2 -1.0236893 1.8047379 -1.4142135 1.4142135C -1.8047379 1.0236893 -2 0.5522848 -2 0C -2 -0.5522848 -1.8047379 -1.0236893 -1.4142135 -1.4142135C -1.0236893 -1.8047379 -0.5522848 -2 0 -2C 0.5522848 -2 1.0236893 -1.8047379 1.4142135 -1.4142135C 1.8047379 -1.0236893 2 -0.5522848 2 0C 2 0.023273421 1.999594 0.046539754 1.9987817 0.06979899" stroke="none" fill="#3370FF" fill-rule="nonzero" fill-opacity="0.14901961" />
    <path transform="matrix(0.00572777 -0.999984 -0.999984 -0.00572777 107.81 558.034)"  d="M2 0C 2 0.5522848 1.8047379 1.0236893 1.4142135 1.4142135C 1.0236893 1.8047379 0.5522848 2 0 2C -0.5522848 2 -1.0236893 1.8047379 -1.4142135 1.4142135C -1.8047379 1.0236893 -2 0.5522848 -2 0C -2 -0.5522848 -1.8047379 -1.0236893 -1.4142135 -1.4142135C -1.0236893 -1.8047379 -0.5522848 -2 0 -2C 0.5522848 -2 1.0236893 -1.8047379 1.4142135 -1.4142135C 1.8047379 -1.0236893 2 -0.5522848 2 0C 2 0.023273421 1.999594 0.046539754 1.9987817 0.06979899" stroke="none" fill="#3370FF" fill-rule="nonzero" fill-opacity="0.14901961" />
    <path transform="matrix(0.00572777 -0.999984 -0.999984 -0.00572777 121.609 558.057)"  d="M2 0C 2 0.5522848 1.8047379 1.0236893 1.4142135 1.4142135C 1.0236893 1.8047379 0.5522848 2 0 2C -0.5522848 2 -1.0236893 1.8047379 -1.4142135 1.4142135C -1.8047379 1.0236893 -2 0.5522848 -2 0C -2 -0.5522848 -1.8047379 -1.0236893 -1.4142135 -1.4142135C -1.0236893 -1.8047379 -0.5522848 -2 0 -2C 0.5522848 -2 1.0236893 -1.8047379 1.4142135 -1.4142135C 1.8047379 -1.0236893 2 -0.5522848 2 0C 2 0.023273421 1.999594 0.046539754 1.9987817 0.06979899" stroke="none" fill="#3370FF" fill-rule="nonzero" fill-opacity="0.14901961" />
    <path transform="matrix(-0.99997 -0.00777117 -0.00777117 0.99997 162.222 479.015)"  d="M2 0C 2 0.5522848 1.8047379 1.0236893 1.4142135 1.4142135C 1.0236893 1.8047379 0.5522848 2 0 2C -0.5522848 2 -1.0236893 1.8047379 -1.4142135 1.4142135C -1.8047379 1.0236893 -2 0.5522848 -2 0C -2 -0.5522848 -1.8047379 -1.0236893 -1.4142135 -1.4142135C -1.0236893 -1.8047379 -0.5522848 -2 0 -2C 0.5522848 -2 1.0236893 -1.8047379 1.4142135 -1.4142135C 1.8047379 -1.0236893 2 -0.5522848 2 0C 2 0.023273421 1.999594 0.046539754 1.9987817 0.06979899" stroke="none" fill="#3370FF" fill-rule="nonzero" fill-opacity="0.14901961" />
    <path transform="matrix(-0.99997 -0.00777117 -0.00777117 0.99997 162.273 465.217)"  d="M2 0C 2 0.5522848 1.8047379 1.0236893 1.4142135 1.4142135C 1.0236893 1.8047379 0.5522848 2 0 2C -0.5522848 2 -1.0236893 1.8047379 -1.4142135 1.4142135C -1.8047379 1.0236893 -2 0.5522848 -2 0C -2 -0.5522848 -1.8047379 -1.0236893 -1.4142135 -1.4142135C -1.0236893 -1.8047379 -0.5522848 -2 0 -2C 0.5522848 -2 1.0236893 -1.8047379 1.4142135 -1.4142135C 1.8047379 -1.0236893 2 -0.5522848 2 0C 2 0.023273421 1.999594 0.046539754 1.9987817 0.06979899" stroke="none" fill="#3370FF" fill-rule="nonzero" fill-opacity="0.14901961" />
    <path transform="matrix(-0.99997 -0.00777117 -0.00777117 0.99997 175.222 479.015)"  d="M2 0C 2 0.5522848 1.8047379 1.0236893 1.4142135 1.4142135C 1.0236893 1.8047379 0.5522848 2 0 2C -0.5522848 2 -1.0236893 1.8047379 -1.4142135 1.4142135C -1.8047379 1.0236893 -2 0.5522848 -2 0C -2 -0.5522848 -1.8047379 -1.0236893 -1.4142135 -1.4142135C -1.0236893 -1.8047379 -0.5522848 -2 0 -2C 0.5522848 -2 1.0236893 -1.8047379 1.4142135 -1.4142135C 1.8047379 -1.0236893 2 -0.5522848 2 0C 2 0.023273421 1.999594 0.046539754 1.9987817 0.06979899" stroke="none" fill="#3370FF" fill-rule="nonzero" fill-opacity="0.14901961" />
    <path transform="matrix(-0.99997 -0.00777117 -0.00777117 0.99997 175.273 465.217)"  d="M2 0C 2 0.5522848 1.8047379 1.0236893 1.4142135 1.4142135C 1.0236893 1.8047379 0.5522848 2 0 2C -0.5522848 2 -1.0236893 1.8047379 -1.4142135 1.4142135C -1.8047379 1.0236893 -2 0.5522848 -2 0C -2 -0.5522848 -1.8047379 -1.0236893 -1.4142135 -1.4142135C -1.0236893 -1.8047379 -0.5522848 -2 0 -2C 0.5522848 -2 1.0236893 -1.8047379 1.4142135 -1.4142135C 1.8047379 -1.0236893 2 -0.5522848 2 0C 2 0.023273421 1.999594 0.046539754 1.9987817 0.06979899" stroke="none" fill="#3370FF" fill-rule="nonzero" fill-opacity="0.14901961" />
    <path transform="matrix(0.00572777 -0.999984 -0.999984 -0.00572777 107.81 418.034)"  d="M2 0C 2 0.5522848 1.8047379 1.0236893 1.4142135 1.4142135C 1.0236893 1.8047379 0.5522848 2 0 2C -0.5522848 2 -1.0236893 1.8047379 -1.4142135 1.4142135C -1.8047379 1.0236893 -2 0.5522848 -2 0C -2 -0.5522848 -1.8047379 -1.0236893 -1.4142135 -1.4142135C -1.0236893 -1.8047379 -0.5522848 -2 0 -2C 0.5522848 -2 1.0236893 -1.8047379 1.4142135 -1.4142135C 1.8047379 -1.0236893 2 -0.5522848 2 0C 2 0.023273421 1.999594 0.046539754 1.9987817 0.06979899" stroke="none" fill="#3370FF" fill-rule="nonzero" fill-opacity="0.14901961" />
    <path transform="matrix(0.00572777 -0.999984 -0.999984 -0.00572777 121.609 418.057)"  d="M2 0C 2 0.5522848 1.8047379 1.0236893 1.4142135 1.4142135C 1.0236893 1.8047379 0.5522848 2 0 2C -0.5522848 2 -1.0236893 1.8047379 -1.4142135 1.4142135C -1.8047379 1.0236893 -2 0.5522848 -2 0C -2 -0.5522848 -1.8047379 -1.0236893 -1.4142135 -1.4142135C -1.0236893 -1.8047379 -0.5522848 -2 0 -2C 0.5522848 -2 1.0236893 -1.8047379 1.4142135 -1.4142135C 1.8047379 -1.0236893 2 -0.5522848 2 0C 2 0.023273421 1.999594 0.046539754 1.9987817 0.06979899" stroke="none" fill="#3370FF" fill-rule="nonzero" fill-opacity="0.14901961" />
    <path transform="matrix(0.00572777 -0.999984 -0.999984 -0.00572777 107.81 404.034)"  d="M2 0C 2 0.5522848 1.8047379 1.0236893 1.4142135 1.4142135C 1.0236893 1.8047379 0.5522848 2 0 2C -0.5522848 2 -1.0236893 1.8047379 -1.4142135 1.4142135C -1.8047379 1.0236893 -2 0.5522848 -2 0C -2 -0.5522848 -1.8047379 -1.0236893 -1.4142135 -1.4142135C -1.0236893 -1.8047379 -0.5522848 -2 0 -2C 0.5522848 -2 1.0236893 -1.8047379 1.4142135 -1.4142135C 1.8047379 -1.0236893 2 -0.5522848 2 0C 2 0.023273421 1.999594 0.046539754 1.9987817 0.06979899" stroke="none" fill="#3370FF" fill-rule="nonzero" fill-opacity="0.14901961" />
    <path transform="matrix(0.00572777 -0.999984 -0.999984 -0.00572777 121.609 404.057)"  d="M2 0C 2 0.5522848 1.8047379 1.0236893 1.4142135 1.4142135C 1.0236893 1.8047379 0.5522848 2 0 2C -0.5522848 2 -1.0236893 1.8047379 -1.4142135 1.4142135C -1.8047379 1.0236893 -2 0.5522848 -2 0C -2 -0.5522848 -1.8047379 -1.0236893 -1.4142135 -1.4142135C -1.0236893 -1.8047379 -0.5522848 -2 0 -2C 0.5522848 -2 1.0236893 -1.8047379 1.4142135 -1.4142135C 1.8047379 -1.0236893 2 -0.5522848 2 0C 2 0.023273421 1.999594 0.046539754 1.9987817 0.06979899" stroke="none" fill="#3370FF" fill-rule="nonzero" fill-opacity="0.14901961" />
    <path transform="matrix(0.00572777 -0.999984 -0.999984 -0.00572777 107.609 544.057)"  d="M2 0C 2 0.5522848 1.8047379 1.0236893 1.4142135 1.4142135C 1.0236893 1.8047379 0.5522848 2 0 2C -0.5522848 2 -1.0236893 1.8047379 -1.4142135 1.4142135C -1.8047379 1.0236893 -2 0.5522848 -2 0C -2 -0.5522848 -1.8047379 -1.0236893 -1.4142135 -1.4142135C -1.0236893 -1.8047379 -0.5522848 -2 0 -2C 0.5522848 -2 1.0236893 -1.8047379 1.4142135 -1.4142135C 1.8047379 -1.0236893 2 -0.5522848 2 0C 2 0.023273421 1.999594 0.046539754 1.9987817 0.06979899" stroke="none" fill="#3370FF" fill-rule="nonzero" fill-opacity="0.14901961" />
    <path transform="matrix(0.00572777 -0.999984 -0.999984 -0.00572777 121.408 544.08)"  d="M2 0C 2 0.5522848 1.8047379 1.0236893 1.4142135 1.4142135C 1.0236893 1.8047379 0.5522848 2 0 2C -0.5522848 2 -1.0236893 1.8047379 -1.4142135 1.4142135C -1.8047379 1.0236893 -2 0.5522848 -2 0C -2 -0.5522848 -1.8047379 -1.0236893 -1.4142135 -1.4142135C -1.0236893 -1.8047379 -0.5522848 -2 0 -2C 0.5522848 -2 1.0236893 -1.8047379 1.4142135 -1.4142135C 1.8047379 -1.0236893 2 -0.5522848 2 0C 2 0.023273421 1.999594 0.046539754 1.9987817 0.06979899" stroke="none" fill="#3370FF" fill-rule="nonzero" fill-opacity="0.14901961" />
    <path transform="matrix(0.00572777 -0.999984 -0.999984 -0.00572777 107.609 530.057)"  d="M2 0C 2 0.5522848 1.8047379 1.0236893 1.4142135 1.4142135C 1.0236893 1.8047379 0.5522848 2 0 2C -0.5522848 2 -1.0236893 1.8047379 -1.4142135 1.4142135C -1.8047379 1.0236893 -2 0.5522848 -2 0C -2 -0.5522848 -1.8047379 -1.0236893 -1.4142135 -1.4142135C -1.0236893 -1.8047379 -0.5522848 -2 0 -2C 0.5522848 -2 1.0236893 -1.8047379 1.4142135 -1.4142135C 1.8047379 -1.0236893 2 -0.5522848 2 0C 2 0.023273421 1.999594 0.046539754 1.9987817 0.06979899" stroke="none" fill="#3370FF" fill-rule="nonzero" fill-opacity="0.14901961" />
    <path transform="matrix(0.00572777 -0.999984 -0.999984 -0.00572777 121.408 530.08)"  d="M2 0C 2 0.5522848 1.8047379 1.0236893 1.4142135 1.4142135C 1.0236893 1.8047379 0.5522848 2 0 2C -0.5522848 2 -1.0236893 1.8047379 -1.4142135 1.4142135C -1.8047379 1.0236893 -2 0.5522848 -2 0C -2 -0.5522848 -1.8047379 -1.0236893 -1.4142135 -1.4142135C -1.0236893 -1.8047379 -0.5522848 -2 0 -2C 0.5522848 -2 1.0236893 -1.8047379 1.4142135 -1.4142135C 1.8047379 -1.0236893 2 -0.5522848 2 0C 2 0.023273421 1.999594 0.046539754 1.9987817 0.06979899" stroke="none" fill="#3370FF" fill-rule="nonzero" fill-opacity="0.14901961" />
    <path transform="matrix(0.00572777 -0.999984 -0.999984 -0.00572777 107.609 516.057)"  d="M2 0C 2 0.5522848 1.8047379 1.0236893 1.4142135 1.4142135C 1.0236893 1.8047379 0.5522848 2 0 2C -0.5522848 2 -1.0236893 1.8047379 -1.4142135 1.4142135C -1.8047379 1.0236893 -2 0.5522848 -2 0C -2 -0.5522848 -1.8047379 -1.0236893 -1.4142135 -1.4142135C -1.0236893 -1.8047379 -0.5522848 -2 0 -2C 0.5522848 -2 1.0236893 -1.8047379 1.4142135 -1.4142135C 1.8047379 -1.0236893 2 -0.5522848 2 0C 2 0.023273421 1.999594 0.046539754 1.9987817 0.06979899" stroke="none" fill="#3370FF" fill-rule="nonzero" fill-opacity="0.14901961" />
    <path transform="matrix(0.00572777 -0.999984 -0.999984 -0.00572777 121.408 516.08)"  d="M2 0C 2 0.5522848 1.8047379 1.0236893 1.4142135 1.4142135C 1.0236893 1.8047379 0.5522848 2 0 2C -0.5522848 2 -1.0236893 1.8047379 -1.4142135 1.4142135C -1.8047379 1.0236893 -2 0.5522848 -2 0C -2 -0.5522848 -1.8047379 -1.0236893 -1.4142135 -1.4142135C -1.0236893 -1.8047379 -0.5522848 -2 0 -2C 0.5522848 -2 1.0236893 -1.8047379 1.4142135 -1.4142135C 1.8047379 -1.0236893 2 -0.5522848 2 0C 2 0.023273421 1.999594 0.046539754 1.9987817 0.06979899" stroke="none" fill="#3370FF" fill-rule="nonzero" fill-opacity="0.14901961" />
    <path transform="matrix(0.00572777 -0.999984 -0.999984 -0.00572777 107.609 502.057)"  d="M2 0C 2 0.5522848 1.8047379 1.0236893 1.4142135 1.4142135C 1.0236893 1.8047379 0.5522848 2 0 2C -0.5522848 2 -1.0236893 1.8047379 -1.4142135 1.4142135C -1.8047379 1.0236893 -2 0.5522848 -2 0C -2 -0.5522848 -1.8047379 -1.0236893 -1.4142135 -1.4142135C -1.0236893 -1.8047379 -0.5522848 -2 0 -2C 0.5522848 -2 1.0236893 -1.8047379 1.4142135 -1.4142135C 1.8047379 -1.0236893 2 -0.5522848 2 0C 2 0.023273421 1.999594 0.046539754 1.9987817 0.06979899" stroke="none" fill="#3370FF" fill-rule="nonzero" fill-opacity="0.14901961" />
    <path transform="matrix(0.00572777 -0.999984 -0.999984 -0.00572777 121.408 502.08)"  d="M2 0C 2 0.5522848 1.8047379 1.0236893 1.4142135 1.4142135C 1.0236893 1.8047379 0.5522848 2 0 2C -0.5522848 2 -1.0236893 1.8047379 -1.4142135 1.4142135C -1.8047379 1.0236893 -2 0.5522848 -2 0C -2 -0.5522848 -1.8047379 -1.0236893 -1.4142135 -1.4142135C -1.0236893 -1.8047379 -0.5522848 -2 0 -2C 0.5522848 -2 1.0236893 -1.8047379 1.4142135 -1.4142135C 1.8047379 -1.0236893 2 -0.5522848 2 0C 2 0.023273421 1.999594 0.046539754 1.9987817 0.06979899" stroke="none" fill="#3370FF" fill-rule="nonzero" fill-opacity="0.14901961" />
    <path transform="matrix(0.00572777 -0.999984 -0.999984 -0.00572777 107.609 488.057)"  d="M2 0C 2 0.5522848 1.8047379 1.0236893 1.4142135 1.4142135C 1.0236893 1.8047379 0.5522848 2 0 2C -0.5522848 2 -1.0236893 1.8047379 -1.4142135 1.4142135C -1.8047379 1.0236893 -2 0.5522848 -2 0C -2 -0.5522848 -1.8047379 -1.0236893 -1.4142135 -1.4142135C -1.0236893 -1.8047379 -0.5522848 -2 0 -2C 0.5522848 -2 1.0236893 -1.8047379 1.4142135 -1.4142135C 1.8047379 -1.0236893 2 -0.5522848 2 0C 2 0.023273421 1.999594 0.046539754 1.9987817 0.06979899" stroke="none" fill="#3370FF" fill-rule="nonzero" fill-opacity="0.14901961" />
    <path transform="matrix(0.00572777 -0.999984 -0.999984 -0.00572777 121.408 488.08)"  d="M2 0C 2 0.5522848 1.8047379 1.0236893 1.4142135 1.4142135C 1.0236893 1.8047379 0.5522848 2 0 2C -0.5522848 2 -1.0236893 1.8047379 -1.4142135 1.4142135C -1.8047379 1.0236893 -2 0.5522848 -2 0C -2 -0.5522848 -1.8047379 -1.0236893 -1.4142135 -1.4142135C -1.0236893 -1.8047379 -0.5522848 -2 0 -2C 0.5522848 -2 1.0236893 -1.8047379 1.4142135 -1.4142135C 1.8047379 -1.0236893 2 -0.5522848 2 0C 2 0.023273421 1.999594 0.046539754 1.9987817 0.06979899" stroke="none" fill="#3370FF" fill-rule="nonzero" fill-opacity="0.14901961" />
    <path transform="matrix(0.00572777 -0.999984 -0.999984 -0.00572777 107.609 474.057)"  d="M2 0C 2 0.5522848 1.8047379 1.0236893 1.4142135 1.4142135C 1.0236893 1.8047379 0.5522848 2 0 2C -0.5522848 2 -1.0236893 1.8047379 -1.4142135 1.4142135C -1.8047379 1.0236893 -2 0.5522848 -2 0C -2 -0.5522848 -1.8047379 -1.0236893 -1.4142135 -1.4142135C -1.0236893 -1.8047379 -0.5522848 -2 0 -2C 0.5522848 -2 1.0236893 -1.8047379 1.4142135 -1.4142135C 1.8047379 -1.0236893 2 -0.5522848 2 0C 2 0.023273421 1.999594 0.046539754 1.9987817 0.06979899" stroke="none" fill="#3370FF" fill-rule="nonzero" fill-opacity="0.14901961" />
    <path transform="matrix(0.00572777 -0.999984 -0.999984 -0.00572777 121.408 474.08)"  d="M2 0C 2 0.5522848 1.8047379 1.0236893 1.4142135 1.4142135C 1.0236893 1.8047379 0.5522848 2 0 2C -0.5522848 2 -1.0236893 1.8047379 -1.4142135 1.4142135C -1.8047379 1.0236893 -2 0.5522848 -2 0C -2 -0.5522848 -1.8047379 -1.0236893 -1.4142135 -1.4142135C -1.0236893 -1.8047379 -0.5522848 -2 0 -2C 0.5522848 -2 1.0236893 -1.8047379 1.4142135 -1.4142135C 1.8047379 -1.0236893 2 -0.5522848 2 0C 2 0.023273421 1.999594 0.046539754 1.9987817 0.06979899" stroke="none" fill="#3370FF" fill-rule="nonzero" fill-opacity="0.14901961" />
    <path transform="matrix(0.00572777 -0.999984 -0.999984 -0.00572777 107.609 460.057)"  d="M2 0C 2 0.5522848 1.8047379 1.0236893 1.4142135 1.4142135C 1.0236893 1.8047379 0.5522848 2 0 2C -0.5522848 2 -1.0236893 1.8047379 -1.4142135 1.4142135C -1.8047379 1.0236893 -2 0.5522848 -2 0C -2 -0.5522848 -1.8047379 -1.0236893 -1.4142135 -1.4142135C -1.0236893 -1.8047379 -0.5522848 -2 0 -2C 0.5522848 -2 1.0236893 -1.8047379 1.4142135 -1.4142135C 1.8047379 -1.0236893 2 -0.5522848 2 0C 2 0.023273421 1.999594 0.046539754 1.9987817 0.06979899" stroke="none" fill="#3370FF" fill-rule="nonzero" fill-opacity="0.14901961" />
    <path transform="matrix(0.00572777 -0.999984 -0.999984 -0.00572777 121.408 460.08)"  d="M2 0C 2 0.5522848 1.8047379 1.0236893 1.4142135 1.4142135C 1.0236893 1.8047379 0.5522848 2 0 2C -0.5522848 2 -1.0236893 1.8047379 -1.4142135 1.4142135C -1.8047379 1.0236893 -2 0.5522848 -2 0C -2 -0.5522848 -1.8047379 -1.0236893 -1.4142135 -1.4142135C -1.0236893 -1.8047379 -0.5522848 -2 0 -2C 0.5522848 -2 1.0236893 -1.8047379 1.4142135 -1.4142135C 1.8047379 -1.0236893 2 -0.5522848 2 0C 2 0.023273421 1.999594 0.046539754 1.9987817 0.06979899" stroke="none" fill="#3370FF" fill-rule="nonzero" fill-opacity="0.14901961" />
    <path transform="matrix(0.00572777 -0.999984 -0.999984 -0.00572777 107.609 446.057)"  d="M2 0C 2 0.5522848 1.8047379 1.0236893 1.4142135 1.4142135C 1.0236893 1.8047379 0.5522848 2 0 2C -0.5522848 2 -1.0236893 1.8047379 -1.4142135 1.4142135C -1.8047379 1.0236893 -2 0.5522848 -2 0C -2 -0.5522848 -1.8047379 -1.0236893 -1.4142135 -1.4142135C -1.0236893 -1.8047379 -0.5522848 -2 0 -2C 0.5522848 -2 1.0236893 -1.8047379 1.4142135 -1.4142135C 1.8047379 -1.0236893 2 -0.5522848 2 0C 2 0.023273421 1.999594 0.046539754 1.9987817 0.06979899" stroke="none" fill="#3370FF" fill-rule="nonzero" fill-opacity="0.14901961" />
    <path transform="matrix(0.00572777 -0.999984 -0.999984 -0.00572777 121.408 446.08)"  d="M2 0C 2 0.5522848 1.8047379 1.0236893 1.4142135 1.4142135C 1.0236893 1.8047379 0.5522848 2 0 2C -0.5522848 2 -1.0236893 1.8047379 -1.4142135 1.4142135C -1.8047379 1.0236893 -2 0.5522848 -2 0C -2 -0.5522848 -1.8047379 -1.0236893 -1.4142135 -1.4142135C -1.0236893 -1.8047379 -0.5522848 -2 0 -2C 0.5522848 -2 1.0236893 -1.8047379 1.4142135 -1.4142135C 1.8047379 -1.0236893 2 -0.5522848 2 0C 2 0.023273421 1.999594 0.046539754 1.9987817 0.06979899" stroke="none" fill="#3370FF" fill-rule="nonzero" fill-opacity="0.14901961" />
    <path transform="matrix(0.00572777 -0.999984 -0.999984 -0.00572777 107.609 432.057)"  d="M2 0C 2 0.5522848 1.8047379 1.0236893 1.4142135 1.4142135C 1.0236893 1.8047379 0.5522848 2 0 2C -0.5522848 2 -1.0236893 1.8047379 -1.4142135 1.4142135C -1.8047379 1.0236893 -2 0.5522848 -2 0C -2 -0.5522848 -1.8047379 -1.0236893 -1.4142135 -1.4142135C -1.0236893 -1.8047379 -0.5522848 -2 0 -2C 0.5522848 -2 1.0236893 -1.8047379 1.4142135 -1.4142135C 1.8047379 -1.0236893 2 -0.5522848 2 0C 2 0.023273421 1.999594 0.046539754 1.9987817 0.06979899" stroke="none" fill="#3370FF" fill-rule="nonzero" fill-opacity="0.14901961" />
    <path transform="matrix(0.00572777 -0.999984 -0.999984 -0.00572777 121.408 432.08)"  d="M2 0C 2 0.5522848 1.8047379 1.0236893 1.4142135 1.4142135C 1.0236893 1.8047379 0.5522848 2 0 2C -0.5522848 2 -1.0236893 1.8047379 -1.4142135 1.4142135C -1.8047379 1.0236893 -2 0.5522848 -2 0C -2 -0.5522848 -1.8047379 -1.0236893 -1.4142135 -1.4142135C -1.0236893 -1.8047379 -0.5522848 -2 0 -2C 0.5522848 -2 1.0236893 -1.8047379 1.4142135 -1.4142135C 1.8047379 -1.0236893 2 -0.5522848 2 0C 2 0.023273421 1.999594 0.046539754 1.9987817 0.06979899" stroke="none" fill="#3370FF" fill-rule="nonzero" fill-opacity="0.14901961" />
    <path transform="matrix(0.00572777 -0.999984 -0.999984 -0.00572777 135.011 558.011)"  d="M2 0C 2 0.5522848 1.8047379 1.0236893 1.4142135 1.4142135C 1.0236893 1.8047379 0.5522848 2 0 2C -0.5522848 2 -1.0236893 1.8047379 -1.4142135 1.4142135C -1.8047379 1.0236893 -2 0.5522848 -2 0C -2 -0.5522848 -1.8047379 -1.0236893 -1.4142135 -1.4142135C -1.0236893 -1.8047379 -0.5522848 -2 0 -2C 0.5522848 -2 1.0236893 -1.8047379 1.4142135 -1.4142135C 1.8047379 -1.0236893 2 -0.5522848 2 0C 2 0.023273421 1.999594 0.046539754 1.9987817 0.06979899" stroke="none" fill="#3370FF" fill-rule="nonzero" fill-opacity="0.14901961" />
    <path transform="matrix(0.00572777 -0.999984 -0.999984 -0.00572777 148.81 558.034)"  d="M2 0C 2 0.5522848 1.8047379 1.0236893 1.4142135 1.4142135C 1.0236893 1.8047379 0.5522848 2 0 2C -0.5522848 2 -1.0236893 1.8047379 -1.4142135 1.4142135C -1.8047379 1.0236893 -2 0.5522848 -2 0C -2 -0.5522848 -1.8047379 -1.0236893 -1.4142135 -1.4142135C -1.0236893 -1.8047379 -0.5522848 -2 0 -2C 0.5522848 -2 1.0236893 -1.8047379 1.4142135 -1.4142135C 1.8047379 -1.0236893 2 -0.5522848 2 0C 2 0.023273421 1.999594 0.046539754 1.9987817 0.06979899" stroke="none" fill="#3370FF" fill-rule="nonzero" fill-opacity="0.14901961" />
    <path transform="matrix(-0.99997 -0.00777117 -0.00777117 0.99997 162.255 451.814)"  d="M2 0C 2 0.5522848 1.8047379 1.0236893 1.4142135 1.4142135C 1.0236893 1.8047379 0.5522848 2 0 2C -0.5522848 2 -1.0236893 1.8047379 -1.4142135 1.4142135C -1.8047379 1.0236893 -2 0.5522848 -2 0C -2 -0.5522848 -1.8047379 -1.0236893 -1.4142135 -1.4142135C -1.0236893 -1.8047379 -0.5522848 -2 0 -2C 0.5522848 -2 1.0236893 -1.8047379 1.4142135 -1.4142135C 1.8047379 -1.0236893 2 -0.5522848 2 0C 2 0.023273421 1.999594 0.046539754 1.9987817 0.06979899" stroke="none" fill="#3370FF" fill-rule="nonzero" fill-opacity="0.14901961" />
    <path transform="matrix(-0.99997 -0.00777117 -0.00777117 0.99997 162.306 438.016)"  d="M2 0C 2 0.5522848 1.8047379 1.0236893 1.4142135 1.4142135C 1.0236893 1.8047379 0.5522848 2 0 2C -0.5522848 2 -1.0236893 1.8047379 -1.4142135 1.4142135C -1.8047379 1.0236893 -2 0.5522848 -2 0C -2 -0.5522848 -1.8047379 -1.0236893 -1.4142135 -1.4142135C -1.0236893 -1.8047379 -0.5522848 -2 0 -2C 0.5522848 -2 1.0236893 -1.8047379 1.4142135 -1.4142135C 1.8047379 -1.0236893 2 -0.5522848 2 0C 2 0.023273421 1.999594 0.046539754 1.9987817 0.06979899" stroke="none" fill="#3370FF" fill-rule="nonzero" fill-opacity="0.14901961" />
    <path transform="matrix(-0.99997 -0.00777117 -0.00777117 0.99997 175.255 451.814)"  d="M2 0C 2 0.5522848 1.8047379 1.0236893 1.4142135 1.4142135C 1.0236893 1.8047379 0.5522848 2 0 2C -0.5522848 2 -1.0236893 1.8047379 -1.4142135 1.4142135C -1.8047379 1.0236893 -2 0.5522848 -2 0C -2 -0.5522848 -1.8047379 -1.0236893 -1.4142135 -1.4142135C -1.0236893 -1.8047379 -0.5522848 -2 0 -2C 0.5522848 -2 1.0236893 -1.8047379 1.4142135 -1.4142135C 1.8047379 -1.0236893 2 -0.5522848 2 0C 2 0.023273421 1.999594 0.046539754 1.9987817 0.06979899" stroke="none" fill="#3370FF" fill-rule="nonzero" fill-opacity="0.14901961" />
    <path transform="matrix(-0.99997 -0.00777117 -0.00777117 0.99997 175.306 438.016)"  d="M2 0C 2 0.5522848 1.8047379 1.0236893 1.4142135 1.4142135C 1.0236893 1.8047379 0.5522848 2 0 2C -0.5522848 2 -1.0236893 1.8047379 -1.4142135 1.4142135C -1.8047379 1.0236893 -2 0.5522848 -2 0C -2 -0.5522848 -1.8047379 -1.0236893 -1.4142135 -1.4142135C -1.0236893 -1.8047379 -0.5522848 -2 0 -2C 0.5522848 -2 1.0236893 -1.8047379 1.4142135 -1.4142135C 1.8047379 -1.0236893 2 -0.5522848 2 0C 2 0.023273421 1.999594 0.046539754 1.9987817 0.06979899" stroke="none" fill="#3370FF" fill-rule="nonzero" fill-opacity="0.14901961" />
    <path transform="matrix(0.00572777 -0.999984 -0.999984 -0.00572777 135.011 418.011)"  d="M2 0C 2 0.5522848 1.8047379 1.0236893 1.4142135 1.4142135C 1.0236893 1.8047379 0.5522848 2 0 2C -0.5522848 2 -1.0236893 1.8047379 -1.4142135 1.4142135C -1.8047379 1.0236893 -2 0.5522848 -2 0C -2 -0.5522848 -1.8047379 -1.0236893 -1.4142135 -1.4142135C -1.0236893 -1.8047379 -0.5522848 -2 0 -2C 0.5522848 -2 1.0236893 -1.8047379 1.4142135 -1.4142135C 1.8047379 -1.0236893 2 -0.5522848 2 0C 2 0.023273421 1.999594 0.046539754 1.9987817 0.06979899" stroke="none" fill="#3370FF" fill-rule="nonzero" fill-opacity="0.14901961" />
    <path transform="matrix(0.00572777 -0.999984 -0.999984 -0.00572777 148.81 418.034)"  d="M2 0C 2 0.5522848 1.8047379 1.0236893 1.4142135 1.4142135C 1.0236893 1.8047379 0.5522848 2 0 2C -0.5522848 2 -1.0236893 1.8047379 -1.4142135 1.4142135C -1.8047379 1.0236893 -2 0.5522848 -2 0C -2 -0.5522848 -1.8047379 -1.0236893 -1.4142135 -1.4142135C -1.0236893 -1.8047379 -0.5522848 -2 0 -2C 0.5522848 -2 1.0236893 -1.8047379 1.4142135 -1.4142135C 1.8047379 -1.0236893 2 -0.5522848 2 0C 2 0.023273421 1.999594 0.046539754 1.9987817 0.06979899" stroke="none" fill="#3370FF" fill-rule="nonzero" fill-opacity="0.14901961" />
    <path transform="matrix(0.00572777 -0.999984 -0.999984 -0.00572777 135.011 404.011)"  d="M2 0C 2 0.5522848 1.8047379 1.0236893 1.4142135 1.4142135C 1.0236893 1.8047379 0.5522848 2 0 2C -0.5522848 2 -1.0236893 1.8047379 -1.4142135 1.4142135C -1.8047379 1.0236893 -2 0.5522848 -2 0C -2 -0.5522848 -1.8047379 -1.0236893 -1.4142135 -1.4142135C -1.0236893 -1.8047379 -0.5522848 -2 0 -2C 0.5522848 -2 1.0236893 -1.8047379 1.4142135 -1.4142135C 1.8047379 -1.0236893 2 -0.5522848 2 0C 2 0.023273421 1.999594 0.046539754 1.9987817 0.06979899" stroke="none" fill="#3370FF" fill-rule="nonzero" fill-opacity="0.14901961" />
    <path transform="matrix(0.00572777 -0.999984 -0.999984 -0.00572777 148.81 404.034)"  d="M2 0C 2 0.5522848 1.8047379 1.0236893 1.4142135 1.4142135C 1.0236893 1.8047379 0.5522848 2 0 2C -0.5522848 2 -1.0236893 1.8047379 -1.4142135 1.4142135C -1.8047379 1.0236893 -2 0.5522848 -2 0C -2 -0.5522848 -1.8047379 -1.0236893 -1.4142135 -1.4142135C -1.0236893 -1.8047379 -0.5522848 -2 0 -2C 0.5522848 -2 1.0236893 -1.8047379 1.4142135 -1.4142135C 1.8047379 -1.0236893 2 -0.5522848 2 0C 2 0.023273421 1.999594 0.046539754 1.9987817 0.06979899" stroke="none" fill="#3370FF" fill-rule="nonzero" fill-opacity="0.14901961" />
    <path transform="matrix(0.00572777 -0.999984 -0.999984 -0.00572777 134.81 544.034)"  d="M2 0C 2 0.5522848 1.8047379 1.0236893 1.4142135 1.4142135C 1.0236893 1.8047379 0.5522848 2 0 2C -0.5522848 2 -1.0236893 1.8047379 -1.4142135 1.4142135C -1.8047379 1.0236893 -2 0.5522848 -2 0C -2 -0.5522848 -1.8047379 -1.0236893 -1.4142135 -1.4142135C -1.0236893 -1.8047379 -0.5522848 -2 0 -2C 0.5522848 -2 1.0236893 -1.8047379 1.4142135 -1.4142135C 1.8047379 -1.0236893 2 -0.5522848 2 0C 2 0.023273421 1.999594 0.046539754 1.9987817 0.06979899" stroke="none" fill="#3370FF" fill-rule="nonzero" fill-opacity="0.14901961" />
    <path transform="matrix(0.00572777 -0.999984 -0.999984 -0.00572777 148.609 544.057)"  d="M2 0C 2 0.5522848 1.8047379 1.0236893 1.4142135 1.4142135C 1.0236893 1.8047379 0.5522848 2 0 2C -0.5522848 2 -1.0236893 1.8047379 -1.4142135 1.4142135C -1.8047379 1.0236893 -2 0.5522848 -2 0C -2 -0.5522848 -1.8047379 -1.0236893 -1.4142135 -1.4142135C -1.0236893 -1.8047379 -0.5522848 -2 0 -2C 0.5522848 -2 1.0236893 -1.8047379 1.4142135 -1.4142135C 1.8047379 -1.0236893 2 -0.5522848 2 0C 2 0.023273421 1.999594 0.046539754 1.9987817 0.06979899" stroke="none" fill="#3370FF" fill-rule="nonzero" fill-opacity="0.14901961" />
    <path transform="matrix(0.00572777 -0.999984 -0.999984 -0.00572777 134.81 530.034)"  d="M2 0C 2 0.5522848 1.8047379 1.0236893 1.4142135 1.4142135C 1.0236893 1.8047379 0.5522848 2 0 2C -0.5522848 2 -1.0236893 1.8047379 -1.4142135 1.4142135C -1.8047379 1.0236893 -2 0.5522848 -2 0C -2 -0.5522848 -1.8047379 -1.0236893 -1.4142135 -1.4142135C -1.0236893 -1.8047379 -0.5522848 -2 0 -2C 0.5522848 -2 1.0236893 -1.8047379 1.4142135 -1.4142135C 1.8047379 -1.0236893 2 -0.5522848 2 0C 2 0.023273421 1.999594 0.046539754 1.9987817 0.06979899" stroke="none" fill="#3370FF" fill-rule="nonzero" fill-opacity="0.14901961" />
    <path transform="matrix(0.00572777 -0.999984 -0.999984 -0.00572777 148.609 530.057)"  d="M2 0C 2 0.5522848 1.8047379 1.0236893 1.4142135 1.4142135C 1.0236893 1.8047379 0.5522848 2 0 2C -0.5522848 2 -1.0236893 1.8047379 -1.4142135 1.4142135C -1.8047379 1.0236893 -2 0.5522848 -2 0C -2 -0.5522848 -1.8047379 -1.0236893 -1.4142135 -1.4142135C -1.0236893 -1.8047379 -0.5522848 -2 0 -2C 0.5522848 -2 1.0236893 -1.8047379 1.4142135 -1.4142135C 1.8047379 -1.0236893 2 -0.5522848 2 0C 2 0.023273421 1.999594 0.046539754 1.9987817 0.06979899" stroke="none" fill="#3370FF" fill-rule="nonzero" fill-opacity="0.14901961" />
    <path transform="matrix(0.00572777 -0.999984 -0.999984 -0.00572777 134.81 516.034)"  d="M2 0C 2 0.5522848 1.8047379 1.0236893 1.4142135 1.4142135C 1.0236893 1.8047379 0.5522848 2 0 2C -0.5522848 2 -1.0236893 1.8047379 -1.4142135 1.4142135C -1.8047379 1.0236893 -2 0.5522848 -2 0C -2 -0.5522848 -1.8047379 -1.0236893 -1.4142135 -1.4142135C -1.0236893 -1.8047379 -0.5522848 -2 0 -2C 0.5522848 -2 1.0236893 -1.8047379 1.4142135 -1.4142135C 1.8047379 -1.0236893 2 -0.5522848 2 0C 2 0.023273421 1.999594 0.046539754 1.9987817 0.06979899" stroke="none" fill="#3370FF" fill-rule="nonzero" fill-opacity="0.14901961" />
    <path transform="matrix(0.00572777 -0.999984 -0.999984 -0.00572777 148.609 516.057)"  d="M2 0C 2 0.5522848 1.8047379 1.0236893 1.4142135 1.4142135C 1.0236893 1.8047379 0.5522848 2 0 2C -0.5522848 2 -1.0236893 1.8047379 -1.4142135 1.4142135C -1.8047379 1.0236893 -2 0.5522848 -2 0C -2 -0.5522848 -1.8047379 -1.0236893 -1.4142135 -1.4142135C -1.0236893 -1.8047379 -0.5522848 -2 0 -2C 0.5522848 -2 1.0236893 -1.8047379 1.4142135 -1.4142135C 1.8047379 -1.0236893 2 -0.5522848 2 0C 2 0.023273421 1.999594 0.046539754 1.9987817 0.06979899" stroke="none" fill="#3370FF" fill-rule="nonzero" fill-opacity="0.14901961" />
    <path transform="matrix(0.00572777 -0.999984 -0.999984 -0.00572777 134.81 502.034)"  d="M2 0C 2 0.5522848 1.8047379 1.0236893 1.4142135 1.4142135C 1.0236893 1.8047379 0.5522848 2 0 2C -0.5522848 2 -1.0236893 1.8047379 -1.4142135 1.4142135C -1.8047379 1.0236893 -2 0.5522848 -2 0C -2 -0.5522848 -1.8047379 -1.0236893 -1.4142135 -1.4142135C -1.0236893 -1.8047379 -0.5522848 -2 0 -2C 0.5522848 -2 1.0236893 -1.8047379 1.4142135 -1.4142135C 1.8047379 -1.0236893 2 -0.5522848 2 0C 2 0.023273421 1.999594 0.046539754 1.9987817 0.06979899" stroke="none" fill="#3370FF" fill-rule="nonzero" fill-opacity="0.14901961" />
    <path transform="matrix(0.00572777 -0.999984 -0.999984 -0.00572777 148.609 502.057)"  d="M2 0C 2 0.5522848 1.8047379 1.0236893 1.4142135 1.4142135C 1.0236893 1.8047379 0.5522848 2 0 2C -0.5522848 2 -1.0236893 1.8047379 -1.4142135 1.4142135C -1.8047379 1.0236893 -2 0.5522848 -2 0C -2 -0.5522848 -1.8047379 -1.0236893 -1.4142135 -1.4142135C -1.0236893 -1.8047379 -0.5522848 -2 0 -2C 0.5522848 -2 1.0236893 -1.8047379 1.4142135 -1.4142135C 1.8047379 -1.0236893 2 -0.5522848 2 0C 2 0.023273421 1.999594 0.046539754 1.9987817 0.06979899" stroke="none" fill="#3370FF" fill-rule="nonzero" fill-opacity="0.14901961" />
    <path transform="matrix(0.00572777 -0.999984 -0.999984 -0.00572777 134.81 488.034)"  d="M2 0C 2 0.5522848 1.8047379 1.0236893 1.4142135 1.4142135C 1.0236893 1.8047379 0.5522848 2 0 2C -0.5522848 2 -1.0236893 1.8047379 -1.4142135 1.4142135C -1.8047379 1.0236893 -2 0.5522848 -2 0C -2 -0.5522848 -1.8047379 -1.0236893 -1.4142135 -1.4142135C -1.0236893 -1.8047379 -0.5522848 -2 0 -2C 0.5522848 -2 1.0236893 -1.8047379 1.4142135 -1.4142135C 1.8047379 -1.0236893 2 -0.5522848 2 0C 2 0.023273421 1.999594 0.046539754 1.9987817 0.06979899" stroke="none" fill="#3370FF" fill-rule="nonzero" fill-opacity="0.14901961" />
    <path transform="matrix(0.00572777 -0.999984 -0.999984 -0.00572777 148.609 488.057)"  d="M2 0C 2 0.5522848 1.8047379 1.0236893 1.4142135 1.4142135C 1.0236893 1.8047379 0.5522848 2 0 2C -0.5522848 2 -1.0236893 1.8047379 -1.4142135 1.4142135C -1.8047379 1.0236893 -2 0.5522848 -2 0C -2 -0.5522848 -1.8047379 -1.0236893 -1.4142135 -1.4142135C -1.0236893 -1.8047379 -0.5522848 -2 0 -2C 0.5522848 -2 1.0236893 -1.8047379 1.4142135 -1.4142135C 1.8047379 -1.0236893 2 -0.5522848 2 0C 2 0.023273421 1.999594 0.046539754 1.9987817 0.06979899" stroke="none" fill="#3370FF" fill-rule="nonzero" fill-opacity="0.14901961" />
    <path transform="matrix(0.00572777 -0.999984 -0.999984 -0.00572777 134.81 474.034)"  d="M2 0C 2 0.5522848 1.8047379 1.0236893 1.4142135 1.4142135C 1.0236893 1.8047379 0.5522848 2 0 2C -0.5522848 2 -1.0236893 1.8047379 -1.4142135 1.4142135C -1.8047379 1.0236893 -2 0.5522848 -2 0C -2 -0.5522848 -1.8047379 -1.0236893 -1.4142135 -1.4142135C -1.0236893 -1.8047379 -0.5522848 -2 0 -2C 0.5522848 -2 1.0236893 -1.8047379 1.4142135 -1.4142135C 1.8047379 -1.0236893 2 -0.5522848 2 0C 2 0.023273421 1.999594 0.046539754 1.9987817 0.06979899" stroke="none" fill="#3370FF" fill-rule="nonzero" fill-opacity="0.14901961" />
    <path transform="matrix(0.00572777 -0.999984 -0.999984 -0.00572777 148.609 474.057)"  d="M2 0C 2 0.5522848 1.8047379 1.0236893 1.4142135 1.4142135C 1.0236893 1.8047379 0.5522848 2 0 2C -0.5522848 2 -1.0236893 1.8047379 -1.4142135 1.4142135C -1.8047379 1.0236893 -2 0.5522848 -2 0C -2 -0.5522848 -1.8047379 -1.0236893 -1.4142135 -1.4142135C -1.0236893 -1.8047379 -0.5522848 -2 0 -2C 0.5522848 -2 1.0236893 -1.8047379 1.4142135 -1.4142135C 1.8047379 -1.0236893 2 -0.5522848 2 0C 2 0.023273421 1.999594 0.046539754 1.9987817 0.06979899" stroke="none" fill="#3370FF" fill-rule="nonzero" fill-opacity="0.14901961" />
    <path transform="matrix(0.00572777 -0.999984 -0.999984 -0.00572777 134.81 460.034)"  d="M2 0C 2 0.5522848 1.8047379 1.0236893 1.4142135 1.4142135C 1.0236893 1.8047379 0.5522848 2 0 2C -0.5522848 2 -1.0236893 1.8047379 -1.4142135 1.4142135C -1.8047379 1.0236893 -2 0.5522848 -2 0C -2 -0.5522848 -1.8047379 -1.0236893 -1.4142135 -1.4142135C -1.0236893 -1.8047379 -0.5522848 -2 0 -2C 0.5522848 -2 1.0236893 -1.8047379 1.4142135 -1.4142135C 1.8047379 -1.0236893 2 -0.5522848 2 0C 2 0.023273421 1.999594 0.046539754 1.9987817 0.06979899" stroke="none" fill="#3370FF" fill-rule="nonzero" fill-opacity="0.14901961" />
    <path transform="matrix(0.00572777 -0.999984 -0.999984 -0.00572777 148.609 460.057)"  d="M2 0C 2 0.5522848 1.8047379 1.0236893 1.4142135 1.4142135C 1.0236893 1.8047379 0.5522848 2 0 2C -0.5522848 2 -1.0236893 1.8047379 -1.4142135 1.4142135C -1.8047379 1.0236893 -2 0.5522848 -2 0C -2 -0.5522848 -1.8047379 -1.0236893 -1.4142135 -1.4142135C -1.0236893 -1.8047379 -0.5522848 -2 0 -2C 0.5522848 -2 1.0236893 -1.8047379 1.4142135 -1.4142135C 1.8047379 -1.0236893 2 -0.5522848 2 0C 2 0.023273421 1.999594 0.046539754 1.9987817 0.06979899" stroke="none" fill="#3370FF" fill-rule="nonzero" fill-opacity="0.14901961" />
    <path transform="matrix(0.00572777 -0.999984 -0.999984 -0.00572777 134.81 446.034)"  d="M2 0C 2 0.5522848 1.8047379 1.0236893 1.4142135 1.4142135C 1.0236893 1.8047379 0.5522848 2 0 2C -0.5522848 2 -1.0236893 1.8047379 -1.4142135 1.4142135C -1.8047379 1.0236893 -2 0.5522848 -2 0C -2 -0.5522848 -1.8047379 -1.0236893 -1.4142135 -1.4142135C -1.0236893 -1.8047379 -0.5522848 -2 0 -2C 0.5522848 -2 1.0236893 -1.8047379 1.4142135 -1.4142135C 1.8047379 -1.0236893 2 -0.5522848 2 0C 2 0.023273421 1.999594 0.046539754 1.9987817 0.06979899" stroke="none" fill="#3370FF" fill-rule="nonzero" fill-opacity="0.14901961" />
    <path transform="matrix(0.00572777 -0.999984 -0.999984 -0.00572777 148.609 446.057)"  d="M2 0C 2 0.5522848 1.8047379 1.0236893 1.4142135 1.4142135C 1.0236893 1.8047379 0.5522848 2 0 2C -0.5522848 2 -1.0236893 1.8047379 -1.4142135 1.4142135C -1.8047379 1.0236893 -2 0.5522848 -2 0C -2 -0.5522848 -1.8047379 -1.0236893 -1.4142135 -1.4142135C -1.0236893 -1.8047379 -0.5522848 -2 0 -2C 0.5522848 -2 1.0236893 -1.8047379 1.4142135 -1.4142135C 1.8047379 -1.0236893 2 -0.5522848 2 0C 2 0.023273421 1.999594 0.046539754 1.9987817 0.06979899" stroke="none" fill="#3370FF" fill-rule="nonzero" fill-opacity="0.14901961" />
    <path transform="matrix(0.00572777 -0.999984 -0.999984 -0.00572777 134.81 432.034)"  d="M2 0C 2 0.5522848 1.8047379 1.0236893 1.4142135 1.4142135C 1.0236893 1.8047379 0.5522848 2 0 2C -0.5522848 2 -1.0236893 1.8047379 -1.4142135 1.4142135C -1.8047379 1.0236893 -2 0.5522848 -2 0C -2 -0.5522848 -1.8047379 -1.0236893 -1.4142135 -1.4142135C -1.0236893 -1.8047379 -0.5522848 -2 0 -2C 0.5522848 -2 1.0236893 -1.8047379 1.4142135 -1.4142135C 1.8047379 -1.0236893 2 -0.5522848 2 0C 2 0.023273421 1.999594 0.046539754 1.9987817 0.06979899" stroke="none" fill="#3370FF" fill-rule="nonzero" fill-opacity="0.14901961" />
    <path transform="matrix(0.00572777 -0.999984 -0.999984 -0.00572777 148.609 432.057)"  d="M2 0C 2 0.5522848 1.8047379 1.0236893 1.4142135 1.4142135C 1.0236893 1.8047379 0.5522848 2 0 2C -0.5522848 2 -1.0236893 1.8047379 -1.4142135 1.4142135C -1.8047379 1.0236893 -2 0.5522848 -2 0C -2 -0.5522848 -1.8047379 -1.0236893 -1.4142135 -1.4142135C -1.0236893 -1.8047379 -0.5522848 -2 0 -2C 0.5522848 -2 1.0236893 -1.8047379 1.4142135 -1.4142135C 1.8047379 -1.0236893 2 -0.5522848 2 0C 2 0.023273421 1.999594 0.046539754 1.9987817 0.06979899" stroke="none" fill="#3370FF" fill-rule="nonzero" fill-opacity="0.14901961" />
    <path d="M592 139C 592 157.50154 585.45874 173.2936 572.37616 186.37616C 559.2936 199.45874 543.5016 206.00002 525 206C 506.49847 206.00002 490.70642 199.45874 477.62384 186.37616C 464.5413 173.2936 458 157.50154 458 139C 458 120.49847 464.5413 104.70641 477.62384 91.62385C 490.70642 78.54128 506.49847 72 525 72C 543.5016 72 559.2936 78.54128 572.37616 91.62385C 585.45874 104.70641 592 120.49847 592 139C 592 139.77966 591.98645 140.5591 591.95917 141.33827" stroke="none" fill="#6FDAC0" fill-rule="nonzero" />
    <path d="M478.973 416.257C 463.598 435.951 456.675 460.946 459.729 485.744C 462.783 510.542 475.563 533.111 495.257 548.486C 514.951 563.862 539.946 570.784 564.744 567.73C 589.542 564.676 612.111 551.897 627.486 532.202L627.486 532.202L553.23 474.23L478.973 416.257z" stroke="none" fill="#FF9D0A" fill-rule="nonzero" />
    <path d="M322 50C 322 44.477154 326.47714 40 332 40L332 40L547 40C 552.5228 40 557 44.477154 557 50L557 50L557 510C 557 515.5228 552.5228 520 547 520L547 520L332 520C 326.47714 520 322 515.5228 322 510L322 510L322 50z" stroke="none" fill="#FFFFFF" fill-rule="nonzero" fill-opacity="0.64705884" />
	<g>
        <path d="M80 50C 80 44.477154 84.47715 40 90 40L90 40L527 40C 532.5228 40 537 44.477154 537 50L537 50L537 490C 537 495.52286 532.5228 500 527 500L527 500L90 500C 84.47715 500 80 495.52286 80 490L80 490L80 50z" stroke="none" fill="none" />
	</g>
</g>
</svg>