<?xml version="1.0" encoding="utf-8"?>
<!-- Generator: Adobe Illustrator 25.0.0, SVG Export Plug-In . SVG Version: 6.00 Build 0)  -->
<svg version="1.1" id="body_1" xmlns="http://www.w3.org/2000/svg" xmlns:xlink="http://www.w3.org/1999/xlink" x="0px" y="0px"
	 viewBox="0 0 686 607" style="enable-background:new 0 0 686 607;" xml:space="preserve">
<style type="text/css">
	.st0{fill:#3370FF;fill-opacity:0.149;}
	.st1{fill:#6FDAC0;}
	.st2{fill:#FF9D0A;}
	.st3{fill:#FFFFFF;fill-opacity:0.6471;}
	.st4{fill:none;}
</style>
<g transform="matrix(1 0 0 1 0 0)">
	<path class="st0" d="M655,555.3c0.6,0,1,0.2,1.4,0.6c0.4,0.4,0.6,0.9,0.6,1.4c0,0.6-0.2,1-0.6,1.4c-0.4,0.4-0.9,0.6-1.4,0.6
		c-0.6,0-1-0.2-1.4-0.6s-0.6-0.9-0.6-1.4c0-0.6,0.2-1,0.6-1.4C654,555.5,654.5,555.3,655,555.3C655,555.3,655.1,555.3,655,555.3"/>
	<path class="st0" d="M641.2,555.3c0.6,0,1,0.2,1.4,0.6c0.4,0.4,0.6,0.9,0.6,1.4c0,0.6-0.2,1-0.6,1.4c-0.4,0.4-0.9,0.6-1.4,0.6
		c-0.6,0-1-0.2-1.4-0.6s-0.6-0.9-0.6-1.4c0-0.6,0.2-1,0.6-1.4C640.2,555.5,640.7,555.3,641.2,555.3
		C641.2,555.3,641.3,555.3,641.2,555.3"/>
	<path class="st0" d="M524.2,556.9c0,0.6-0.2,1-0.6,1.4c-0.4,0.4-0.9,0.6-1.4,0.6c-0.6,0-1-0.2-1.4-0.6s-0.6-0.9-0.6-1.4
		c0-0.6,0.2-1,0.6-1.4c0.4-0.4,0.9-0.6,1.4-0.6s1,0.2,1.4,0.6C524,555.9,524.2,556.3,524.2,556.9
		C524.2,556.9,524.2,556.9,524.2,556.9"/>
	<path class="st0" d="M524.2,543.1c0,0.6-0.2,1-0.6,1.4c-0.4,0.4-0.9,0.6-1.4,0.6c-0.6,0-1-0.2-1.4-0.6s-0.6-0.9-0.6-1.4
		c0-0.6,0.2-1,0.6-1.4c0.4-0.4,0.9-0.6,1.4-0.6c0.6,0,1,0.2,1.4,0.6C524,542.1,524.2,542.5,524.2,543.1
		C524.2,543.1,524.2,543.1,524.2,543.1"/>
	<path class="st0" d="M511.2,556.9c0,0.6-0.2,1-0.6,1.4s-0.9,0.6-1.4,0.6c-0.6,0-1-0.2-1.4-0.6s-0.6-0.9-0.6-1.4
		c0-0.6,0.2-1,0.6-1.4c0.4-0.4,0.9-0.6,1.4-0.6s1,0.2,1.4,0.6C511,555.9,511.2,556.3,511.2,556.9
		C511.2,556.9,511.2,556.9,511.2,556.9"/>
	<path class="st0" d="M511.2,543.1c0,0.6-0.2,1-0.6,1.4s-0.9,0.6-1.4,0.6c-0.6,0-1-0.2-1.4-0.6s-0.6-0.9-0.6-1.4
		c0-0.6,0.2-1,0.6-1.4c0.4-0.4,0.9-0.6,1.4-0.6s1,0.2,1.4,0.6C511,542.1,511.2,542.5,511.2,543.1
		C511.2,543.1,511.2,543.1,511.2,543.1"/>
	<path class="st0" d="M655,415.3c0.6,0,1,0.2,1.4,0.6s0.6,0.9,0.6,1.4s-0.2,1-0.6,1.4s-0.9,0.6-1.4,0.6c-0.6,0-1-0.2-1.4-0.6
		s-0.6-0.9-0.6-1.4s0.2-1,0.6-1.4C654,415.5,654.5,415.3,655,415.3C655,415.3,655.1,415.3,655,415.3"/>
	<path class="st0" d="M641.2,415.3c0.6,0,1,0.2,1.4,0.6c0.4,0.4,0.6,0.9,0.6,1.4c0,0.6-0.2,1-0.6,1.4s-0.9,0.6-1.4,0.6
		c-0.6,0-1-0.2-1.4-0.6s-0.6-0.9-0.6-1.4c0-0.6,0.2-1,0.6-1.4C640.2,415.5,640.7,415.3,641.2,415.3
		C641.2,415.3,641.3,415.3,641.2,415.3"/>
	<path class="st0" d="M655,401.3c0.6,0,1,0.2,1.4,0.6s0.6,0.9,0.6,1.4s-0.2,1-0.6,1.4s-0.9,0.6-1.4,0.6c-0.6,0-1-0.2-1.4-0.6
		s-0.6-0.9-0.6-1.4s0.2-1,0.6-1.4C654,401.5,654.5,401.3,655,401.3C655,401.3,655.1,401.3,655,401.3"/>
	<path class="st0" d="M641.2,401.3c0.6,0,1,0.2,1.4,0.6c0.4,0.4,0.6,0.9,0.6,1.4c0,0.6-0.2,1-0.6,1.4s-0.9,0.6-1.4,0.6
		c-0.6,0-1-0.2-1.4-0.6s-0.6-0.9-0.6-1.4c0-0.6,0.2-1,0.6-1.4C640.2,401.5,640.7,401.3,641.2,401.3
		C641.2,401.3,641.3,401.3,641.2,401.3"/>
	<path class="st0" d="M655.2,541.3c0.6,0,1,0.2,1.4,0.6c0.4,0.4,0.6,0.9,0.6,1.4c0,0.6-0.2,1-0.6,1.4c-0.4,0.4-0.9,0.6-1.4,0.6
		c-0.6,0-1-0.2-1.4-0.6s-0.6-0.9-0.6-1.4c0-0.6,0.2-1,0.6-1.4C654.2,541.5,654.7,541.3,655.2,541.3
		C655.2,541.3,655.3,541.3,655.2,541.3"/>
	<path class="st0" d="M641.4,541.3c0.6,0,1,0.2,1.4,0.6c0.4,0.4,0.6,0.9,0.6,1.4c0,0.6-0.2,1-0.6,1.4c-0.4,0.4-0.9,0.6-1.4,0.6
		c-0.6,0-1-0.2-1.4-0.6s-0.6-0.9-0.6-1.4c0-0.6,0.2-1,0.6-1.4C640.4,541.5,640.9,541.3,641.4,541.3
		C641.5,541.3,641.5,541.3,641.4,541.3"/>
	<path class="st0" d="M655.2,527.3c0.6,0,1,0.2,1.4,0.6c0.4,0.4,0.6,0.9,0.6,1.4c0,0.6-0.2,1-0.6,1.4c-0.4,0.4-0.9,0.6-1.4,0.6
		c-0.6,0-1-0.2-1.4-0.6s-0.6-0.9-0.6-1.4c0-0.6,0.2-1,0.6-1.4C654.2,527.5,654.7,527.3,655.2,527.3
		C655.2,527.3,655.3,527.3,655.2,527.3"/>
	<path class="st0" d="M641.4,527.3c0.6,0,1,0.2,1.4,0.6c0.4,0.4,0.6,0.9,0.6,1.4c0,0.6-0.2,1-0.6,1.4c-0.4,0.4-0.9,0.6-1.4,0.6
		c-0.6,0-1-0.2-1.4-0.6s-0.6-0.9-0.6-1.4c0-0.6,0.2-1,0.6-1.4C640.4,527.5,640.9,527.3,641.4,527.3
		C641.5,527.3,641.5,527.3,641.4,527.3"/>
	<path class="st0" d="M655.2,513.3c0.6,0,1,0.2,1.4,0.6c0.4,0.4,0.6,0.9,0.6,1.4c0,0.6-0.2,1-0.6,1.4c-0.4,0.4-0.9,0.6-1.4,0.6
		c-0.6,0-1-0.2-1.4-0.6s-0.6-0.9-0.6-1.4c0-0.6,0.2-1,0.6-1.4C654.2,513.5,654.7,513.3,655.2,513.3
		C655.2,513.3,655.3,513.3,655.2,513.3"/>
	<path class="st0" d="M641.4,513.3c0.6,0,1,0.2,1.4,0.6c0.4,0.4,0.6,0.9,0.6,1.4c0,0.6-0.2,1-0.6,1.4c-0.4,0.4-0.9,0.6-1.4,0.6
		c-0.6,0-1-0.2-1.4-0.6s-0.6-0.9-0.6-1.4c0-0.6,0.2-1,0.6-1.4C640.4,513.5,640.9,513.3,641.4,513.3
		C641.5,513.3,641.5,513.3,641.4,513.3"/>
	<path class="st0" d="M655.2,499.3c0.6,0,1,0.2,1.4,0.6c0.4,0.4,0.6,0.9,0.6,1.4c0,0.6-0.2,1-0.6,1.4c-0.4,0.4-0.9,0.6-1.4,0.6
		c-0.6,0-1-0.2-1.4-0.6s-0.6-0.9-0.6-1.4c0-0.6,0.2-1,0.6-1.4C654.2,499.5,654.7,499.3,655.2,499.3
		C655.2,499.3,655.3,499.3,655.2,499.3"/>
	<path class="st0" d="M641.4,499.3c0.6,0,1,0.2,1.4,0.6s0.6,0.9,0.6,1.4s-0.2,1-0.6,1.4s-0.9,0.6-1.4,0.6c-0.6,0-1-0.2-1.4-0.6
		s-0.6-0.9-0.6-1.4s0.2-1,0.6-1.4C640.4,499.5,640.9,499.3,641.4,499.3C641.5,499.3,641.5,499.3,641.4,499.3"/>
	<path class="st0" d="M655.2,485.3c0.6,0,1,0.2,1.4,0.6c0.4,0.4,0.6,0.9,0.6,1.4c0,0.6-0.2,1-0.6,1.4c-0.4,0.4-0.9,0.6-1.4,0.6
		c-0.6,0-1-0.2-1.4-0.6s-0.6-0.9-0.6-1.4c0-0.6,0.2-1,0.6-1.4C654.2,485.5,654.7,485.3,655.2,485.3
		C655.2,485.3,655.3,485.3,655.2,485.3"/>
	<path class="st0" d="M641.4,485.3c0.6,0,1,0.2,1.4,0.6s0.6,0.9,0.6,1.4s-0.2,1-0.6,1.4s-0.9,0.6-1.4,0.6c-0.6,0-1-0.2-1.4-0.6
		s-0.6-0.9-0.6-1.4s0.2-1,0.6-1.4C640.4,485.5,640.9,485.3,641.4,485.3C641.5,485.3,641.5,485.3,641.4,485.3"/>
	<path class="st0" d="M655.2,471.3c0.6,0,1,0.2,1.4,0.6c0.4,0.4,0.6,0.9,0.6,1.4c0,0.6-0.2,1-0.6,1.4c-0.4,0.4-0.9,0.6-1.4,0.6
		c-0.6,0-1-0.2-1.4-0.6s-0.6-0.9-0.6-1.4c0-0.6,0.2-1,0.6-1.4C654.2,471.5,654.7,471.3,655.2,471.3
		C655.2,471.3,655.3,471.3,655.2,471.3"/>
	<path class="st0" d="M641.4,471.3c0.6,0,1,0.2,1.4,0.6s0.6,0.9,0.6,1.4s-0.2,1-0.6,1.4s-0.9,0.6-1.4,0.6c-0.6,0-1-0.2-1.4-0.6
		s-0.6-0.9-0.6-1.4s0.2-1,0.6-1.4C640.4,471.5,640.9,471.3,641.4,471.3C641.5,471.3,641.5,471.3,641.4,471.3"/>
	<path class="st0" d="M655.2,457.3c0.6,0,1,0.2,1.4,0.6c0.4,0.4,0.6,0.9,0.6,1.4c0,0.6-0.2,1-0.6,1.4c-0.4,0.4-0.9,0.6-1.4,0.6
		c-0.6,0-1-0.2-1.4-0.6s-0.6-0.9-0.6-1.4c0-0.6,0.2-1,0.6-1.4C654.2,457.5,654.7,457.3,655.2,457.3
		C655.2,457.3,655.3,457.3,655.2,457.3"/>
	<path class="st0" d="M641.4,457.3c0.6,0,1,0.2,1.4,0.6s0.6,0.9,0.6,1.4s-0.2,1-0.6,1.4s-0.9,0.6-1.4,0.6c-0.6,0-1-0.2-1.4-0.6
		s-0.6-0.9-0.6-1.4s0.2-1,0.6-1.4C640.4,457.5,640.9,457.3,641.4,457.3C641.5,457.3,641.5,457.3,641.4,457.3"/>
	<path class="st0" d="M655.2,443.3c0.6,0,1,0.2,1.4,0.6c0.4,0.4,0.6,0.9,0.6,1.4c0,0.6-0.2,1-0.6,1.4c-0.4,0.4-0.9,0.6-1.4,0.6
		c-0.6,0-1-0.2-1.4-0.6s-0.6-0.9-0.6-1.4c0-0.6,0.2-1,0.6-1.4C654.2,443.5,654.7,443.3,655.2,443.3
		C655.2,443.3,655.3,443.3,655.2,443.3"/>
	<path class="st0" d="M641.4,443.3c0.6,0,1,0.2,1.4,0.6s0.6,0.9,0.6,1.4s-0.2,1-0.6,1.4s-0.9,0.6-1.4,0.6c-0.6,0-1-0.2-1.4-0.6
		s-0.6-0.9-0.6-1.4s0.2-1,0.6-1.4C640.4,443.5,640.9,443.3,641.4,443.3C641.5,443.3,641.5,443.3,641.4,443.3"/>
	<path class="st0" d="M655.2,429.3c0.6,0,1,0.2,1.4,0.6c0.4,0.4,0.6,0.9,0.6,1.4c0,0.6-0.2,1-0.6,1.4c-0.4,0.4-0.9,0.6-1.4,0.6
		c-0.6,0-1-0.2-1.4-0.6s-0.6-0.9-0.6-1.4c0-0.6,0.2-1,0.6-1.4C654.2,429.5,654.7,429.3,655.2,429.3
		C655.2,429.3,655.3,429.3,655.2,429.3"/>
	<path class="st0" d="M641.4,429.3c0.6,0,1,0.2,1.4,0.6s0.6,0.9,0.6,1.4s-0.2,1-0.6,1.4s-0.9,0.6-1.4,0.6c-0.6,0-1-0.2-1.4-0.6
		s-0.6-0.9-0.6-1.4s0.2-1,0.6-1.4C640.4,429.5,640.9,429.3,641.4,429.3C641.5,429.3,641.5,429.3,641.4,429.3"/>
	<path class="st0" d="M602.2,555.3c0.6,0,1,0.2,1.4,0.6c0.4,0.4,0.6,0.9,0.6,1.4c0,0.6-0.2,1-0.6,1.4c-0.4,0.4-0.9,0.6-1.4,0.6
		c-0.6,0-1-0.2-1.4-0.6s-0.6-0.9-0.6-1.4c0-0.6,0.2-1,0.6-1.4C601.2,555.5,601.7,555.3,602.2,555.3
		C602.2,555.3,602.3,555.3,602.2,555.3"/>
	<path class="st0" d="M588.4,555.3c0.6,0,1,0.2,1.4,0.6c0.4,0.4,0.6,0.9,0.6,1.4c0,0.6-0.2,1-0.6,1.4c-0.4,0.4-0.9,0.6-1.4,0.6
		c-0.6,0-1-0.2-1.4-0.6s-0.6-0.9-0.6-1.4c0-0.6,0.2-1,0.6-1.4C587.4,555.5,587.9,555.3,588.4,555.3
		C588.5,555.3,588.5,555.3,588.4,555.3"/>
	<path class="st0" d="M524.1,504.1c0,0.6-0.2,1-0.6,1.4c-0.4,0.4-0.9,0.6-1.4,0.6c-0.6,0-1-0.2-1.4-0.6s-0.6-0.9-0.6-1.4
		c0-0.6,0.2-1,0.6-1.4s0.9-0.6,1.4-0.6c0.6,0,1,0.2,1.4,0.6C523.9,503.1,524.1,503.5,524.1,504.1
		C524.1,504.1,524.1,504.1,524.1,504.1"/>
	<path class="st0" d="M524.1,490.3c0,0.6-0.2,1-0.6,1.4c-0.4,0.4-0.9,0.6-1.4,0.6c-0.6,0-1-0.2-1.4-0.6s-0.6-0.9-0.6-1.4
		c0-0.6,0.2-1,0.6-1.4s0.9-0.6,1.4-0.6c0.6,0,1,0.2,1.4,0.6C523.8,489.3,524,489.7,524.1,490.3C524.1,490.3,524.1,490.3,524.1,490.3
		"/>
	<path class="st0" d="M511.1,504.1c0,0.6-0.2,1-0.6,1.4s-0.9,0.6-1.4,0.6c-0.6,0-1-0.2-1.4-0.6s-0.6-0.9-0.6-1.4
		c0-0.6,0.2-1,0.6-1.4s0.9-0.6,1.4-0.6c0.6,0,1,0.2,1.4,0.6S511.1,503.5,511.1,504.1C511.1,504.1,511.1,504.1,511.1,504.1"/>
	<path class="st0" d="M511.1,490.3c0,0.6-0.2,1-0.6,1.4s-0.9,0.6-1.4,0.6c-0.6,0-1-0.2-1.4-0.6s-0.6-0.9-0.6-1.4
		c0-0.6,0.2-1,0.6-1.4s0.9-0.6,1.4-0.6c0.6,0,1,0.2,1.4,0.6S511,489.7,511.1,490.3C511.1,490.3,511.1,490.3,511.1,490.3"/>
	<path class="st0" d="M602.2,415.3c0.6,0,1,0.2,1.4,0.6c0.4,0.4,0.6,0.9,0.6,1.4c0,0.6-0.2,1-0.6,1.4s-0.9,0.6-1.4,0.6
		c-0.6,0-1-0.2-1.4-0.6s-0.6-0.9-0.6-1.4c0-0.6,0.2-1,0.6-1.4C601.2,415.5,601.7,415.3,602.2,415.3
		C602.2,415.3,602.3,415.3,602.2,415.3"/>
	<path class="st0" d="M588.4,415.3c0.6,0,1,0.2,1.4,0.6s0.6,0.9,0.6,1.4s-0.2,1-0.6,1.4s-0.9,0.6-1.4,0.6c-0.6,0-1-0.2-1.4-0.6
		s-0.6-0.9-0.6-1.4s0.2-1,0.6-1.4C587.4,415.5,587.9,415.3,588.4,415.3C588.5,415.3,588.5,415.3,588.4,415.3"/>
	<path class="st0" d="M602.2,401.3c0.6,0,1,0.2,1.4,0.6c0.4,0.4,0.6,0.9,0.6,1.4c0,0.6-0.2,1-0.6,1.4s-0.9,0.6-1.4,0.6
		c-0.6,0-1-0.2-1.4-0.6s-0.6-0.9-0.6-1.4c0-0.6,0.2-1,0.6-1.4C601.2,401.5,601.7,401.3,602.2,401.3
		C602.2,401.3,602.3,401.3,602.2,401.3"/>
	<path class="st0" d="M588.4,401.3c0.6,0,1,0.2,1.4,0.6s0.6,0.9,0.6,1.4s-0.2,1-0.6,1.4s-0.9,0.6-1.4,0.6c-0.6,0-1-0.2-1.4-0.6
		s-0.6-0.9-0.6-1.4s0.2-1,0.6-1.4C587.4,401.5,587.9,401.3,588.4,401.3C588.5,401.3,588.5,401.3,588.4,401.3"/>
	<path class="st0" d="M602.4,541.3c0.6,0,1,0.2,1.4,0.6c0.4,0.4,0.6,0.9,0.6,1.4c0,0.6-0.2,1-0.6,1.4c-0.4,0.4-0.9,0.6-1.4,0.6
		c-0.6,0-1-0.2-1.4-0.6s-0.6-0.9-0.6-1.4c0-0.6,0.2-1,0.6-1.4C601.4,541.5,601.9,541.3,602.4,541.3
		C602.5,541.3,602.5,541.3,602.4,541.3"/>
	<path class="st0" d="M588.6,541.3c0.6,0,1,0.2,1.4,0.6c0.4,0.4,0.6,0.9,0.6,1.4c0,0.6-0.2,1-0.6,1.4c-0.4,0.4-0.9,0.6-1.4,0.6
		c-0.6,0-1-0.2-1.4-0.6s-0.6-0.9-0.6-1.4c0-0.6,0.2-1,0.6-1.4C587.6,541.5,588.1,541.3,588.6,541.3
		C588.7,541.3,588.7,541.3,588.6,541.3"/>
	<path class="st0" d="M602.4,527.3c0.6,0,1,0.2,1.4,0.6c0.4,0.4,0.6,0.9,0.6,1.4c0,0.6-0.2,1-0.6,1.4c-0.4,0.4-0.9,0.6-1.4,0.6
		c-0.6,0-1-0.2-1.4-0.6s-0.6-0.9-0.6-1.4c0-0.6,0.2-1,0.6-1.4C601.4,527.5,601.9,527.3,602.4,527.3
		C602.5,527.3,602.5,527.3,602.4,527.3"/>
	<path class="st0" d="M588.6,527.3c0.6,0,1,0.2,1.4,0.6c0.4,0.4,0.6,0.9,0.6,1.4c0,0.6-0.2,1-0.6,1.4c-0.4,0.4-0.9,0.6-1.4,0.6
		c-0.6,0-1-0.2-1.4-0.6s-0.6-0.9-0.6-1.4c0-0.6,0.2-1,0.6-1.4C587.6,527.5,588.1,527.3,588.6,527.3
		C588.7,527.3,588.7,527.3,588.6,527.3"/>
	<path class="st0" d="M602.4,513.3c0.6,0,1,0.2,1.4,0.6c0.4,0.4,0.6,0.9,0.6,1.4c0,0.6-0.2,1-0.6,1.4c-0.4,0.4-0.9,0.6-1.4,0.6
		c-0.6,0-1-0.2-1.4-0.6s-0.6-0.9-0.6-1.4c0-0.6,0.2-1,0.6-1.4C601.4,513.5,601.9,513.3,602.4,513.3
		C602.5,513.3,602.5,513.3,602.4,513.3"/>
	<path class="st0" d="M588.6,513.3c0.6,0,1,0.2,1.4,0.6c0.4,0.4,0.6,0.9,0.6,1.4c0,0.6-0.2,1-0.6,1.4c-0.4,0.4-0.9,0.6-1.4,0.6
		c-0.6,0-1-0.2-1.4-0.6s-0.6-0.9-0.6-1.4c0-0.6,0.2-1,0.6-1.4C587.6,513.5,588.1,513.3,588.6,513.3
		C588.7,513.3,588.7,513.3,588.6,513.3"/>
	<path class="st0" d="M602.4,499.3c0.6,0,1,0.2,1.4,0.6s0.6,0.9,0.6,1.4s-0.2,1-0.6,1.4s-0.9,0.6-1.4,0.6c-0.6,0-1-0.2-1.4-0.6
		s-0.6-0.9-0.6-1.4s0.2-1,0.6-1.4C601.4,499.5,601.9,499.3,602.4,499.3C602.5,499.3,602.5,499.3,602.4,499.3"/>
	<path class="st0" d="M588.6,499.3c0.6,0,1,0.2,1.4,0.6c0.4,0.4,0.6,0.9,0.6,1.4c0,0.6-0.2,1-0.6,1.4s-0.9,0.6-1.4,0.6
		c-0.6,0-1-0.2-1.4-0.6s-0.6-0.9-0.6-1.4c0-0.6,0.2-1,0.6-1.4C587.6,499.5,588.1,499.3,588.6,499.3
		C588.7,499.3,588.7,499.3,588.6,499.3"/>
	<path class="st0" d="M602.4,485.3c0.6,0,1,0.2,1.4,0.6s0.6,0.9,0.6,1.4s-0.2,1-0.6,1.4s-0.9,0.6-1.4,0.6c-0.6,0-1-0.2-1.4-0.6
		s-0.6-0.9-0.6-1.4s0.2-1,0.6-1.4C601.4,485.5,601.9,485.3,602.4,485.3C602.5,485.3,602.5,485.3,602.4,485.3"/>
	<path class="st0" d="M588.6,485.3c0.6,0,1,0.2,1.4,0.6c0.4,0.4,0.6,0.9,0.6,1.4c0,0.6-0.2,1-0.6,1.4s-0.9,0.6-1.4,0.6
		c-0.6,0-1-0.2-1.4-0.6s-0.6-0.9-0.6-1.4c0-0.6,0.2-1,0.6-1.4C587.6,485.5,588.1,485.3,588.6,485.3
		C588.7,485.3,588.7,485.3,588.6,485.3"/>
	<path class="st0" d="M602.4,471.3c0.6,0,1,0.2,1.4,0.6s0.6,0.9,0.6,1.4s-0.2,1-0.6,1.4s-0.9,0.6-1.4,0.6c-0.6,0-1-0.2-1.4-0.6
		s-0.6-0.9-0.6-1.4s0.2-1,0.6-1.4C601.4,471.5,601.9,471.3,602.4,471.3C602.5,471.3,602.5,471.3,602.4,471.3"/>
	<path class="st0" d="M588.6,471.3c0.6,0,1,0.2,1.4,0.6c0.4,0.4,0.6,0.9,0.6,1.4c0,0.6-0.2,1-0.6,1.4s-0.9,0.6-1.4,0.6
		c-0.6,0-1-0.2-1.4-0.6s-0.6-0.9-0.6-1.4c0-0.6,0.2-1,0.6-1.4C587.6,471.5,588.1,471.3,588.6,471.3
		C588.7,471.3,588.7,471.3,588.6,471.3"/>
	<path class="st0" d="M602.4,457.3c0.6,0,1,0.2,1.4,0.6s0.6,0.9,0.6,1.4s-0.2,1-0.6,1.4s-0.9,0.6-1.4,0.6c-0.6,0-1-0.2-1.4-0.6
		s-0.6-0.9-0.6-1.4s0.2-1,0.6-1.4C601.4,457.5,601.9,457.3,602.4,457.3C602.5,457.3,602.5,457.3,602.4,457.3"/>
	<path class="st0" d="M588.6,457.3c0.6,0,1,0.2,1.4,0.6c0.4,0.4,0.6,0.9,0.6,1.4c0,0.6-0.2,1-0.6,1.4s-0.9,0.6-1.4,0.6
		c-0.6,0-1-0.2-1.4-0.6s-0.6-0.9-0.6-1.4c0-0.6,0.2-1,0.6-1.4C587.6,457.5,588.1,457.3,588.6,457.3
		C588.7,457.3,588.7,457.3,588.6,457.3"/>
	<path class="st0" d="M602.4,443.3c0.6,0,1,0.2,1.4,0.6s0.6,0.9,0.6,1.4s-0.2,1-0.6,1.4s-0.9,0.6-1.4,0.6c-0.6,0-1-0.2-1.4-0.6
		s-0.6-0.9-0.6-1.4s0.2-1,0.6-1.4C601.4,443.5,601.9,443.3,602.4,443.3C602.5,443.3,602.5,443.3,602.4,443.3"/>
	<path class="st0" d="M588.6,443.3c0.6,0,1,0.2,1.4,0.6c0.4,0.4,0.6,0.9,0.6,1.4c0,0.6-0.2,1-0.6,1.4s-0.9,0.6-1.4,0.6
		c-0.6,0-1-0.2-1.4-0.6s-0.6-0.9-0.6-1.4c0-0.6,0.2-1,0.6-1.4C587.6,443.5,588.1,443.3,588.6,443.3
		C588.7,443.3,588.7,443.3,588.6,443.3"/>
	<path class="st0" d="M602.4,429.3c0.6,0,1,0.2,1.4,0.6s0.6,0.9,0.6,1.4s-0.2,1-0.6,1.4s-0.9,0.6-1.4,0.6c-0.6,0-1-0.2-1.4-0.6
		s-0.6-0.9-0.6-1.4s0.2-1,0.6-1.4C601.4,429.5,601.9,429.3,602.4,429.3C602.5,429.3,602.5,429.3,602.4,429.3"/>
	<path class="st0" d="M588.6,429.3c0.6,0,1,0.2,1.4,0.6c0.4,0.4,0.6,0.9,0.6,1.4c0,0.6-0.2,1-0.6,1.4s-0.9,0.6-1.4,0.6
		c-0.6,0-1-0.2-1.4-0.6s-0.6-0.9-0.6-1.4c0-0.6,0.2-1,0.6-1.4C587.6,429.5,588.1,429.3,588.6,429.3
		C588.7,429.3,588.7,429.3,588.6,429.3"/>
	<path class="st0" d="M629.2,555.3c0.6,0,1,0.2,1.4,0.6c0.4,0.4,0.6,0.9,0.6,1.4c0,0.6-0.2,1-0.6,1.4c-0.4,0.4-0.9,0.6-1.4,0.6
		c-0.6,0-1-0.2-1.4-0.6s-0.6-0.9-0.6-1.4c0-0.6,0.2-1,0.6-1.4C628.2,555.5,628.7,555.3,629.2,555.3
		C629.2,555.3,629.3,555.3,629.2,555.3"/>
	<path class="st0" d="M615.4,555.3c0.6,0,1,0.2,1.4,0.6c0.4,0.4,0.6,0.9,0.6,1.4c0,0.6-0.2,1-0.6,1.4c-0.4,0.4-0.9,0.6-1.4,0.6
		c-0.6,0-1-0.2-1.4-0.6s-0.6-0.9-0.6-1.4c0-0.6,0.2-1,0.6-1.4C614.4,555.5,614.9,555.3,615.4,555.3
		C615.5,555.3,615.5,555.3,615.4,555.3"/>
	<path class="st0" d="M524.2,531.1c0,0.6-0.2,1-0.6,1.4c-0.4,0.4-0.9,0.6-1.4,0.6c-0.6,0-1-0.2-1.4-0.6s-0.6-0.9-0.6-1.4
		c0-0.6,0.2-1,0.6-1.4c0.4-0.4,0.9-0.6,1.4-0.6c0.6,0,1,0.2,1.4,0.6C524,530.1,524.2,530.5,524.2,531.1
		C524.2,531.1,524.2,531.1,524.2,531.1"/>
	<path class="st0" d="M524.1,517.3c0,0.6-0.2,1-0.6,1.4c-0.4,0.4-0.9,0.6-1.4,0.6c-0.6,0-1-0.2-1.4-0.6s-0.6-0.9-0.6-1.4
		c0-0.6,0.2-1,0.6-1.4c0.4-0.4,0.9-0.6,1.4-0.6c0.6,0,1,0.2,1.4,0.6C523.9,516.3,524.1,516.7,524.1,517.3
		C524.1,517.3,524.1,517.3,524.1,517.3"/>
	<path class="st0" d="M511.2,531.1c0,0.6-0.2,1-0.6,1.4s-0.9,0.6-1.4,0.6c-0.6,0-1-0.2-1.4-0.6s-0.6-0.9-0.6-1.4
		c0-0.6,0.2-1,0.6-1.4c0.4-0.4,0.9-0.6,1.4-0.6c0.6,0,1,0.2,1.4,0.6C511,530.1,511.2,530.5,511.2,531.1
		C511.2,531.1,511.2,531.1,511.2,531.1"/>
	<path class="st0" d="M511.1,517.3c0,0.6-0.2,1-0.6,1.4s-0.9,0.6-1.4,0.6c-0.6,0-1-0.2-1.4-0.6s-0.6-0.9-0.6-1.4
		c0-0.6,0.2-1,0.6-1.4c0.4-0.4,0.9-0.6,1.4-0.6c0.6,0,1,0.2,1.4,0.6C510.9,516.3,511.1,516.7,511.1,517.3
		C511.1,517.3,511.1,517.3,511.1,517.3"/>
	<path class="st0" d="M629.2,415.3c0.6,0,1,0.2,1.4,0.6c0.4,0.4,0.6,0.9,0.6,1.4c0,0.6-0.2,1-0.6,1.4s-0.9,0.6-1.4,0.6
		c-0.6,0-1-0.2-1.4-0.6s-0.6-0.9-0.6-1.4c0-0.6,0.2-1,0.6-1.4C628.2,415.5,628.7,415.3,629.2,415.3
		C629.2,415.3,629.3,415.3,629.2,415.3"/>
	<path class="st0" d="M615.4,415.3c0.6,0,1,0.2,1.4,0.6s0.6,0.9,0.6,1.4s-0.2,1-0.6,1.4s-0.9,0.6-1.4,0.6c-0.6,0-1-0.2-1.4-0.6
		s-0.6-0.9-0.6-1.4s0.2-1,0.6-1.4C614.4,415.5,614.9,415.3,615.4,415.3C615.5,415.3,615.5,415.3,615.4,415.3"/>
	<path class="st0" d="M629.2,401.3c0.6,0,1,0.2,1.4,0.6c0.4,0.4,0.6,0.9,0.6,1.4c0,0.6-0.2,1-0.6,1.4s-0.9,0.6-1.4,0.6
		c-0.6,0-1-0.2-1.4-0.6s-0.6-0.9-0.6-1.4c0-0.6,0.2-1,0.6-1.4C628.2,401.5,628.7,401.3,629.2,401.3
		C629.2,401.3,629.3,401.3,629.2,401.3"/>
	<path class="st0" d="M615.4,401.3c0.6,0,1,0.2,1.4,0.6s0.6,0.9,0.6,1.4s-0.2,1-0.6,1.4s-0.9,0.6-1.4,0.6c-0.6,0-1-0.2-1.4-0.6
		s-0.6-0.9-0.6-1.4s0.2-1,0.6-1.4C614.4,401.5,614.9,401.3,615.4,401.3C615.5,401.3,615.5,401.3,615.4,401.3"/>
	<path class="st0" d="M629.4,541.3c0.6,0,1,0.2,1.4,0.6c0.4,0.4,0.6,0.9,0.6,1.4c0,0.6-0.2,1-0.6,1.4c-0.4,0.4-0.9,0.6-1.4,0.6
		c-0.6,0-1-0.2-1.4-0.6s-0.6-0.9-0.6-1.4c0-0.6,0.2-1,0.6-1.4C628.4,541.5,628.9,541.3,629.4,541.3
		C629.5,541.3,629.5,541.3,629.4,541.3"/>
	<path class="st0" d="M615.6,541.3c0.6,0,1,0.2,1.4,0.6c0.4,0.4,0.6,0.9,0.6,1.4c0,0.6-0.2,1-0.6,1.4c-0.4,0.4-0.9,0.6-1.4,0.6
		c-0.6,0-1-0.2-1.4-0.6s-0.6-0.9-0.6-1.4c0-0.6,0.2-1,0.6-1.4C614.6,541.5,615.1,541.3,615.6,541.3
		C615.7,541.3,615.7,541.3,615.6,541.3"/>
	<path class="st0" d="M629.4,527.3c0.6,0,1,0.2,1.4,0.6c0.4,0.4,0.6,0.9,0.6,1.4c0,0.6-0.2,1-0.6,1.4c-0.4,0.4-0.9,0.6-1.4,0.6
		c-0.6,0-1-0.2-1.4-0.6s-0.6-0.9-0.6-1.4c0-0.6,0.2-1,0.6-1.4C628.4,527.5,628.9,527.3,629.4,527.3
		C629.5,527.3,629.5,527.3,629.4,527.3"/>
	<path class="st0" d="M615.6,527.3c0.6,0,1,0.2,1.4,0.6c0.4,0.4,0.6,0.9,0.6,1.4c0,0.6-0.2,1-0.6,1.4c-0.4,0.4-0.9,0.6-1.4,0.6
		c-0.6,0-1-0.2-1.4-0.6s-0.6-0.9-0.6-1.4c0-0.6,0.2-1,0.6-1.4C614.6,527.5,615.1,527.3,615.6,527.3
		C615.7,527.3,615.7,527.3,615.6,527.3"/>
	<path class="st0" d="M629.4,513.3c0.6,0,1,0.2,1.4,0.6c0.4,0.4,0.6,0.9,0.6,1.4c0,0.6-0.2,1-0.6,1.4c-0.4,0.4-0.9,0.6-1.4,0.6
		c-0.6,0-1-0.2-1.4-0.6s-0.6-0.9-0.6-1.4c0-0.6,0.2-1,0.6-1.4C628.4,513.5,628.9,513.3,629.4,513.3
		C629.5,513.3,629.5,513.3,629.4,513.3"/>
	<path class="st0" d="M615.6,513.3c0.6,0,1,0.2,1.4,0.6c0.4,0.4,0.6,0.9,0.6,1.4c0,0.6-0.2,1-0.6,1.4c-0.4,0.4-0.9,0.6-1.4,0.6
		c-0.6,0-1-0.2-1.4-0.6s-0.6-0.9-0.6-1.4c0-0.6,0.2-1,0.6-1.4C614.6,513.5,615.1,513.3,615.6,513.3
		C615.7,513.3,615.7,513.3,615.6,513.3"/>
	<path class="st0" d="M629.4,499.3c0.6,0,1,0.2,1.4,0.6s0.6,0.9,0.6,1.4s-0.2,1-0.6,1.4s-0.9,0.6-1.4,0.6c-0.6,0-1-0.2-1.4-0.6
		s-0.6-0.9-0.6-1.4s0.2-1,0.6-1.4C628.4,499.5,628.9,499.3,629.4,499.3C629.5,499.3,629.5,499.3,629.4,499.3"/>
	<path class="st0" d="M615.6,499.3c0.6,0,1,0.2,1.4,0.6c0.4,0.4,0.6,0.9,0.6,1.4c0,0.6-0.2,1-0.6,1.4s-0.9,0.6-1.4,0.6
		c-0.6,0-1-0.2-1.4-0.6s-0.6-0.9-0.6-1.4c0-0.6,0.2-1,0.6-1.4C614.6,499.5,615.1,499.3,615.6,499.3
		C615.7,499.3,615.7,499.3,615.6,499.3"/>
	<path class="st0" d="M629.4,485.3c0.6,0,1,0.2,1.4,0.6s0.6,0.9,0.6,1.4s-0.2,1-0.6,1.4s-0.9,0.6-1.4,0.6c-0.6,0-1-0.2-1.4-0.6
		s-0.6-0.9-0.6-1.4s0.2-1,0.6-1.4C628.4,485.5,628.9,485.3,629.4,485.3C629.5,485.3,629.5,485.3,629.4,485.3"/>
	<path class="st0" d="M615.6,485.3c0.6,0,1,0.2,1.4,0.6c0.4,0.4,0.6,0.9,0.6,1.4c0,0.6-0.2,1-0.6,1.4s-0.9,0.6-1.4,0.6
		c-0.6,0-1-0.2-1.4-0.6s-0.6-0.9-0.6-1.4c0-0.6,0.2-1,0.6-1.4C614.6,485.5,615.1,485.3,615.6,485.3
		C615.7,485.3,615.7,485.3,615.6,485.3"/>
	<path class="st0" d="M629.4,471.3c0.6,0,1,0.2,1.4,0.6s0.6,0.9,0.6,1.4s-0.2,1-0.6,1.4s-0.9,0.6-1.4,0.6c-0.6,0-1-0.2-1.4-0.6
		s-0.6-0.9-0.6-1.4s0.2-1,0.6-1.4C628.4,471.5,628.9,471.3,629.4,471.3C629.5,471.3,629.5,471.3,629.4,471.3"/>
	<path class="st0" d="M615.6,471.3c0.6,0,1,0.2,1.4,0.6c0.4,0.4,0.6,0.9,0.6,1.4c0,0.6-0.2,1-0.6,1.4s-0.9,0.6-1.4,0.6
		c-0.6,0-1-0.2-1.4-0.6s-0.6-0.9-0.6-1.4c0-0.6,0.2-1,0.6-1.4C614.6,471.5,615.1,471.3,615.6,471.3
		C615.7,471.3,615.7,471.3,615.6,471.3"/>
	<path class="st0" d="M629.4,457.3c0.6,0,1,0.2,1.4,0.6s0.6,0.9,0.6,1.4s-0.2,1-0.6,1.4s-0.9,0.6-1.4,0.6c-0.6,0-1-0.2-1.4-0.6
		s-0.6-0.9-0.6-1.4s0.2-1,0.6-1.4C628.4,457.5,628.9,457.3,629.4,457.3C629.5,457.3,629.5,457.3,629.4,457.3"/>
	<path class="st0" d="M615.6,457.3c0.6,0,1,0.2,1.4,0.6c0.4,0.4,0.6,0.9,0.6,1.4c0,0.6-0.2,1-0.6,1.4s-0.9,0.6-1.4,0.6
		c-0.6,0-1-0.2-1.4-0.6s-0.6-0.9-0.6-1.4c0-0.6,0.2-1,0.6-1.4C614.6,457.5,615.1,457.3,615.6,457.3
		C615.7,457.3,615.7,457.3,615.6,457.3"/>
	<path class="st0" d="M629.4,443.3c0.6,0,1,0.2,1.4,0.6s0.6,0.9,0.6,1.4s-0.2,1-0.6,1.4s-0.9,0.6-1.4,0.6c-0.6,0-1-0.2-1.4-0.6
		s-0.6-0.9-0.6-1.4s0.2-1,0.6-1.4C628.4,443.5,628.9,443.3,629.4,443.3C629.5,443.3,629.5,443.3,629.4,443.3"/>
	<path class="st0" d="M615.6,443.3c0.6,0,1,0.2,1.4,0.6c0.4,0.4,0.6,0.9,0.6,1.4c0,0.6-0.2,1-0.6,1.4s-0.9,0.6-1.4,0.6
		c-0.6,0-1-0.2-1.4-0.6s-0.6-0.9-0.6-1.4c0-0.6,0.2-1,0.6-1.4C614.6,443.5,615.1,443.3,615.6,443.3
		C615.7,443.3,615.7,443.3,615.6,443.3"/>
	<path class="st0" d="M629.4,429.3c0.6,0,1,0.2,1.4,0.6s0.6,0.9,0.6,1.4s-0.2,1-0.6,1.4s-0.9,0.6-1.4,0.6c-0.6,0-1-0.2-1.4-0.6
		s-0.6-0.9-0.6-1.4s0.2-1,0.6-1.4C628.4,429.5,628.9,429.3,629.4,429.3C629.5,429.3,629.5,429.3,629.4,429.3"/>
	<path class="st0" d="M615.6,429.3c0.6,0,1,0.2,1.4,0.6c0.4,0.4,0.6,0.9,0.6,1.4c0,0.6-0.2,1-0.6,1.4s-0.9,0.6-1.4,0.6
		c-0.6,0-1-0.2-1.4-0.6s-0.6-0.9-0.6-1.4c0-0.6,0.2-1,0.6-1.4C614.6,429.5,615.1,429.3,615.6,429.3
		C615.7,429.3,615.7,429.3,615.6,429.3"/>
	<path class="st0" d="M576.4,555.3c0.6,0,1,0.2,1.4,0.6c0.4,0.4,0.6,0.9,0.6,1.4c0,0.6-0.2,1-0.6,1.4c-0.4,0.4-0.9,0.6-1.4,0.6
		c-0.6,0-1-0.2-1.4-0.6c-0.4-0.4-0.6-0.9-0.6-1.4c0-0.6,0.2-1,0.6-1.4S575.9,555.3,576.4,555.3C576.5,555.3,576.5,555.3,576.4,555.3
		"/>
	<path class="st0" d="M562.6,555.3c0.6,0,1,0.2,1.4,0.6c0.4,0.4,0.6,0.9,0.6,1.4c0,0.6-0.2,1-0.6,1.4c-0.4,0.4-0.9,0.6-1.4,0.6
		c-0.6,0-1-0.2-1.4-0.6c-0.4-0.4-0.6-0.9-0.6-1.4c0-0.6,0.2-1,0.6-1.4C561.6,555.5,562.1,555.3,562.6,555.3
		C562.7,555.3,562.7,555.3,562.6,555.3"/>
	<path class="st0" d="M524,478.3c0,0.6-0.2,1-0.6,1.4c-0.4,0.4-0.9,0.6-1.4,0.6c-0.6,0-1-0.2-1.4-0.6s-0.6-0.9-0.6-1.4
		c0-0.6,0.2-1,0.6-1.4c0.4-0.4,0.9-0.6,1.4-0.6c0.6,0,1,0.2,1.4,0.6S524,477.7,524,478.3C524,478.3,524,478.3,524,478.3"/>
	<path class="st0" d="M524,464.5c0,0.6-0.2,1-0.6,1.4c-0.4,0.4-0.9,0.6-1.4,0.6c-0.6,0-1-0.2-1.4-0.6s-0.6-0.9-0.6-1.4
		c0-0.6,0.2-1,0.6-1.4c0.4-0.4,0.9-0.6,1.4-0.6c0.6,0,1,0.2,1.4,0.6S524,463.9,524,464.5C524,464.5,524,464.5,524,464.5"/>
	<path class="st0" d="M511,478.3c0,0.6-0.2,1-0.6,1.4s-0.9,0.6-1.4,0.6c-0.6,0-1-0.2-1.4-0.6s-0.6-0.9-0.6-1.4c0-0.6,0.2-1,0.6-1.4
		c0.4-0.4,0.9-0.6,1.4-0.6c0.6,0,1,0.2,1.4,0.6C510.8,477.3,511,477.7,511,478.3C511,478.3,511,478.3,511,478.3"/>
	<path class="st0" d="M511,464.5c0,0.6-0.2,1-0.6,1.4s-0.9,0.6-1.4,0.6c-0.6,0-1-0.2-1.4-0.6s-0.6-0.9-0.6-1.4c0-0.6,0.2-1,0.6-1.4
		c0.4-0.4,0.9-0.6,1.4-0.6c0.6,0,1,0.2,1.4,0.6C510.8,463.5,511,463.9,511,464.5C511,464.5,511,464.5,511,464.5"/>
	<path class="st0" d="M576.4,415.3c0.6,0,1,0.2,1.4,0.6s0.6,0.9,0.6,1.4s-0.2,1-0.6,1.4c-0.4,0.4-0.9,0.6-1.4,0.6
		c-0.6,0-1-0.2-1.4-0.6c-0.4-0.4-0.6-0.9-0.6-1.4c0-0.6,0.2-1,0.6-1.4C575.4,415.5,575.9,415.3,576.4,415.3
		C576.5,415.3,576.5,415.3,576.4,415.3"/>
	<path class="st0" d="M562.6,415.3c0.6,0,1,0.2,1.4,0.6s0.6,0.9,0.6,1.4c0,0.6-0.2,1-0.6,1.4c-0.4,0.4-0.9,0.6-1.4,0.6
		c-0.6,0-1-0.2-1.4-0.6c-0.4-0.4-0.6-0.9-0.6-1.4c0-0.6,0.2-1,0.6-1.4C561.6,415.5,562.1,415.3,562.6,415.3
		C562.7,415.3,562.7,415.3,562.6,415.3"/>
	<path class="st0" d="M576.4,401.3c0.6,0,1,0.2,1.4,0.6s0.6,0.9,0.6,1.4s-0.2,1-0.6,1.4c-0.4,0.4-0.9,0.6-1.4,0.6
		c-0.6,0-1-0.2-1.4-0.6c-0.4-0.4-0.6-0.9-0.6-1.4c0-0.6,0.2-1,0.6-1.4C575.4,401.5,575.9,401.3,576.4,401.3
		C576.5,401.3,576.5,401.3,576.4,401.3"/>
	<path class="st0" d="M562.6,401.3c0.6,0,1,0.2,1.4,0.6s0.6,0.9,0.6,1.4c0,0.6-0.2,1-0.6,1.4c-0.4,0.4-0.9,0.6-1.4,0.6
		c-0.6,0-1-0.2-1.4-0.6c-0.4-0.4-0.6-0.9-0.6-1.4c0-0.6,0.2-1,0.6-1.4C561.6,401.5,562.1,401.3,562.6,401.3
		C562.7,401.3,562.7,401.3,562.6,401.3"/>
	<path class="st0" d="M576.6,541.3c0.6,0,1,0.2,1.4,0.6c0.4,0.4,0.6,0.9,0.6,1.4c0,0.6-0.2,1-0.6,1.4c-0.4,0.4-0.9,0.6-1.4,0.6
		c-0.6,0-1-0.2-1.4-0.6c-0.4-0.4-0.6-0.9-0.6-1.4c0-0.6,0.2-1,0.6-1.4C575.6,541.5,576.1,541.3,576.6,541.3
		C576.7,541.3,576.7,541.3,576.6,541.3"/>
	<path class="st0" d="M562.8,541.4c0.6,0,1,0.2,1.4,0.6c0.4,0.4,0.6,0.9,0.6,1.4c0,0.6-0.2,1-0.6,1.4c-0.4,0.4-0.9,0.6-1.4,0.6
		c-0.6,0-1-0.2-1.4-0.6s-0.6-0.9-0.6-1.4c0-0.6,0.2-1,0.6-1.4C561.8,541.6,562.3,541.4,562.8,541.4
		C562.9,541.4,562.9,541.4,562.8,541.4"/>
	<path class="st0" d="M576.6,527.3c0.6,0,1,0.2,1.4,0.6c0.4,0.4,0.6,0.9,0.6,1.4c0,0.6-0.2,1-0.6,1.4c-0.4,0.4-0.9,0.6-1.4,0.6
		c-0.6,0-1-0.2-1.4-0.6c-0.4-0.4-0.6-0.9-0.6-1.4c0-0.6,0.2-1,0.6-1.4C575.6,527.5,576.1,527.3,576.6,527.3
		C576.7,527.3,576.7,527.3,576.6,527.3"/>
	<path class="st0" d="M562.8,527.4c0.6,0,1,0.2,1.4,0.6c0.4,0.4,0.6,0.9,0.6,1.4c0,0.6-0.2,1-0.6,1.4c-0.4,0.4-0.9,0.6-1.4,0.6
		c-0.6,0-1-0.2-1.4-0.6s-0.6-0.9-0.6-1.4c0-0.6,0.2-1,0.6-1.4C561.8,527.6,562.3,527.4,562.8,527.4
		C562.9,527.4,562.9,527.4,562.8,527.4"/>
	<path class="st0" d="M576.6,513.3c0.6,0,1,0.2,1.4,0.6c0.4,0.4,0.6,0.9,0.6,1.4c0,0.6-0.2,1-0.6,1.4c-0.4,0.4-0.9,0.6-1.4,0.6
		c-0.6,0-1-0.2-1.4-0.6c-0.4-0.4-0.6-0.9-0.6-1.4c0-0.6,0.2-1,0.6-1.4C575.6,513.5,576.1,513.3,576.6,513.3
		C576.7,513.3,576.7,513.3,576.6,513.3"/>
	<path class="st0" d="M562.8,513.4c0.6,0,1,0.2,1.4,0.6c0.4,0.4,0.6,0.9,0.6,1.4c0,0.6-0.2,1-0.6,1.4c-0.4,0.4-0.9,0.6-1.4,0.6
		c-0.6,0-1-0.2-1.4-0.6s-0.6-0.9-0.6-1.4c0-0.6,0.2-1,0.6-1.4C561.8,513.6,562.3,513.4,562.8,513.4
		C562.9,513.4,562.9,513.4,562.8,513.4"/>
	<path class="st0" d="M576.6,499.3c0.6,0,1,0.2,1.4,0.6s0.6,0.9,0.6,1.4c0,0.6-0.2,1-0.6,1.4c-0.4,0.4-0.9,0.6-1.4,0.6
		c-0.6,0-1-0.2-1.4-0.6c-0.4-0.4-0.6-0.9-0.6-1.4c0-0.6,0.2-1,0.6-1.4C575.6,499.5,576.1,499.3,576.6,499.3
		C576.7,499.3,576.7,499.3,576.6,499.3"/>
	<path class="st0" d="M562.8,499.4c0.6,0,1,0.2,1.4,0.6s0.6,0.9,0.6,1.4s-0.2,1-0.6,1.4s-0.9,0.6-1.4,0.6c-0.6,0-1-0.2-1.4-0.6
		s-0.6-0.9-0.6-1.4s0.2-1,0.6-1.4C561.8,499.6,562.3,499.4,562.8,499.4C562.9,499.4,562.9,499.4,562.8,499.4"/>
	<path class="st0" d="M576.6,485.3c0.6,0,1,0.2,1.4,0.6s0.6,0.9,0.6,1.4c0,0.6-0.2,1-0.6,1.4c-0.4,0.4-0.9,0.6-1.4,0.6
		c-0.6,0-1-0.2-1.4-0.6c-0.4-0.4-0.6-0.9-0.6-1.4c0-0.6,0.2-1,0.6-1.4C575.6,485.5,576.1,485.3,576.6,485.3
		C576.7,485.3,576.7,485.3,576.6,485.3"/>
	<path class="st0" d="M562.8,485.4c0.6,0,1,0.2,1.4,0.6s0.6,0.9,0.6,1.4s-0.2,1-0.6,1.4s-0.9,0.6-1.4,0.6c-0.6,0-1-0.2-1.4-0.6
		s-0.6-0.9-0.6-1.4s0.2-1,0.6-1.4C561.8,485.6,562.3,485.4,562.8,485.4C562.9,485.4,562.9,485.4,562.8,485.4"/>
	<path class="st0" d="M576.6,471.3c0.6,0,1,0.2,1.4,0.6s0.6,0.9,0.6,1.4c0,0.6-0.2,1-0.6,1.4c-0.4,0.4-0.9,0.6-1.4,0.6
		c-0.6,0-1-0.2-1.4-0.6c-0.4-0.4-0.6-0.9-0.6-1.4c0-0.6,0.2-1,0.6-1.4C575.6,471.5,576.1,471.3,576.6,471.3
		C576.7,471.3,576.7,471.3,576.6,471.3"/>
	<path class="st0" d="M562.8,471.4c0.6,0,1,0.2,1.4,0.6s0.6,0.9,0.6,1.4s-0.2,1-0.6,1.4s-0.9,0.6-1.4,0.6c-0.6,0-1-0.2-1.4-0.6
		s-0.6-0.9-0.6-1.4s0.2-1,0.6-1.4C561.8,471.6,562.3,471.4,562.8,471.4C562.9,471.4,562.9,471.4,562.8,471.4"/>
	<path class="st0" d="M576.6,457.3c0.6,0,1,0.2,1.4,0.6s0.6,0.9,0.6,1.4c0,0.6-0.2,1-0.6,1.4c-0.4,0.4-0.9,0.6-1.4,0.6
		c-0.6,0-1-0.2-1.4-0.6c-0.4-0.4-0.6-0.9-0.6-1.4c0-0.6,0.2-1,0.6-1.4C575.6,457.5,576.1,457.3,576.6,457.3
		C576.7,457.3,576.7,457.3,576.6,457.3"/>
	<path class="st0" d="M562.8,457.4c0.6,0,1,0.2,1.4,0.6s0.6,0.9,0.6,1.4s-0.2,1-0.6,1.4s-0.9,0.6-1.4,0.6c-0.6,0-1-0.2-1.4-0.6
		s-0.6-0.9-0.6-1.4s0.2-1,0.6-1.4C561.8,457.6,562.3,457.4,562.8,457.4C562.9,457.4,562.9,457.4,562.8,457.4"/>
	<path class="st0" d="M576.6,443.3c0.6,0,1,0.2,1.4,0.6s0.6,0.9,0.6,1.4c0,0.6-0.2,1-0.6,1.4c-0.4,0.4-0.9,0.6-1.4,0.6
		c-0.6,0-1-0.2-1.4-0.6c-0.4-0.4-0.6-0.9-0.6-1.4c0-0.6,0.2-1,0.6-1.4C575.6,443.5,576.1,443.3,576.6,443.3
		C576.7,443.3,576.7,443.3,576.6,443.3"/>
	<path class="st0" d="M562.8,443.4c0.6,0,1,0.2,1.4,0.6s0.6,0.9,0.6,1.4s-0.2,1-0.6,1.4s-0.9,0.6-1.4,0.6c-0.6,0-1-0.2-1.4-0.6
		s-0.6-0.9-0.6-1.4s0.2-1,0.6-1.4C561.8,443.6,562.3,443.4,562.8,443.4C562.9,443.4,562.9,443.4,562.8,443.4"/>
	<path class="st0" d="M576.6,429.3c0.6,0,1,0.2,1.4,0.6s0.6,0.9,0.6,1.4c0,0.6-0.2,1-0.6,1.4c-0.4,0.4-0.9,0.6-1.4,0.6
		c-0.6,0-1-0.2-1.4-0.6c-0.4-0.4-0.6-0.9-0.6-1.4c0-0.6,0.2-1,0.6-1.4C575.6,429.5,576.1,429.3,576.6,429.3
		C576.7,429.3,576.7,429.3,576.6,429.3"/>
	<path class="st0" d="M562.8,429.4c0.6,0,1,0.2,1.4,0.6s0.6,0.9,0.6,1.4s-0.2,1-0.6,1.4s-0.9,0.6-1.4,0.6c-0.6,0-1-0.2-1.4-0.6
		s-0.6-0.9-0.6-1.4s0.2-1,0.6-1.4C561.8,429.6,562.3,429.4,562.8,429.4C562.9,429.4,562.9,429.4,562.8,429.4"/>
	<path class="st0" d="M549.2,555.3c0.6,0,1,0.2,1.4,0.6c0.4,0.4,0.6,0.9,0.6,1.4c0,0.6-0.2,1-0.6,1.4c-0.4,0.4-0.9,0.6-1.4,0.6
		c-0.6,0-1-0.2-1.4-0.6s-0.6-0.9-0.6-1.4c0-0.6,0.2-1,0.6-1.4C548.2,555.5,548.7,555.3,549.2,555.3
		C549.2,555.3,549.3,555.3,549.2,555.3"/>
	<path class="st0" d="M535.4,555.3c0.6,0,1,0.2,1.4,0.6c0.4,0.4,0.6,0.9,0.6,1.4c0,0.6-0.2,1-0.6,1.4c-0.4,0.4-0.9,0.6-1.4,0.6
		c-0.6,0-1-0.2-1.4-0.6c-0.4-0.4-0.6-0.9-0.6-1.4c0-0.6,0.2-1,0.6-1.4S534.9,555.3,535.4,555.3C535.5,555.3,535.5,555.3,535.4,555.3
		"/>
	<path class="st0" d="M524,451.1c0,0.6-0.2,1-0.6,1.4c-0.4,0.4-0.9,0.6-1.4,0.6c-0.6,0-1-0.2-1.4-0.6s-0.6-0.9-0.6-1.4
		c0-0.6,0.2-1,0.6-1.4s0.9-0.6,1.4-0.6c0.6,0,1,0.2,1.4,0.6C523.8,450.1,524,450.5,524,451.1C524,451.1,524,451.1,524,451.1"/>
	<path class="st0" d="M523.9,437.3c0,0.6-0.2,1-0.6,1.4c-0.4,0.4-0.9,0.6-1.4,0.6c-0.6,0-1-0.2-1.4-0.6s-0.6-0.9-0.6-1.4
		c0-0.6,0.2-1,0.6-1.4c0.4-0.4,0.9-0.6,1.4-0.6c0.6,0,1,0.2,1.4,0.6S523.9,436.7,523.9,437.3C523.9,437.3,523.9,437.3,523.9,437.3"
		/>
	<path class="st0" d="M511,451.1c0,0.6-0.2,1-0.6,1.4s-0.9,0.6-1.4,0.6c-0.6,0-1-0.2-1.4-0.6s-0.6-0.9-0.6-1.4c0-0.6,0.2-1,0.6-1.4
		s0.9-0.6,1.4-0.6c0.6,0,1,0.2,1.4,0.6S511,450.5,511,451.1C511,451.1,511,451.1,511,451.1"/>
	<path class="st0" d="M510.9,437.3c0,0.6-0.2,1-0.6,1.4s-0.9,0.6-1.4,0.6c-0.6,0-1-0.2-1.4-0.6s-0.6-0.9-0.6-1.4
		c0-0.6,0.2-1,0.6-1.4s0.9-0.6,1.4-0.6c0.6,0,1,0.2,1.4,0.6S510.9,436.7,510.9,437.3C510.9,437.3,510.9,437.3,510.9,437.3"/>
	<path class="st0" d="M549.2,415.3c0.6,0,1,0.2,1.4,0.6s0.6,0.9,0.6,1.4s-0.2,1-0.6,1.4c-0.4,0.4-0.9,0.6-1.4,0.6
		c-0.6,0-1-0.2-1.4-0.6s-0.6-0.9-0.6-1.4s0.2-1,0.6-1.4C548.2,415.5,548.7,415.3,549.2,415.3C549.2,415.3,549.3,415.3,549.2,415.3"
		/>
	<path class="st0" d="M535.4,415.3c0.6,0,1,0.2,1.4,0.6s0.6,0.9,0.6,1.4s-0.2,1-0.6,1.4c-0.4,0.4-0.9,0.6-1.4,0.6
		c-0.6,0-1-0.2-1.4-0.6c-0.4-0.4-0.6-0.9-0.6-1.4c0-0.6,0.2-1,0.6-1.4C534.4,415.5,534.9,415.3,535.4,415.3
		C535.5,415.3,535.5,415.3,535.4,415.3"/>
	<path class="st0" d="M549.2,401.3c0.6,0,1,0.2,1.4,0.6s0.6,0.9,0.6,1.4s-0.2,1-0.6,1.4c-0.4,0.4-0.9,0.6-1.4,0.6
		c-0.6,0-1-0.2-1.4-0.6s-0.6-0.9-0.6-1.4s0.2-1,0.6-1.4C548.2,401.5,548.7,401.3,549.2,401.3C549.2,401.3,549.3,401.3,549.2,401.3"
		/>
	<path class="st0" d="M535.4,401.3c0.6,0,1,0.2,1.4,0.6s0.6,0.9,0.6,1.4s-0.2,1-0.6,1.4c-0.4,0.4-0.9,0.6-1.4,0.6
		c-0.6,0-1-0.2-1.4-0.6c-0.4-0.4-0.6-0.9-0.6-1.4c0-0.6,0.2-1,0.6-1.4C534.4,401.5,534.9,401.3,535.4,401.3
		C535.5,401.3,535.5,401.3,535.4,401.3"/>
	<path class="st0" d="M549.4,541.3c0.6,0,1,0.2,1.4,0.6c0.4,0.4,0.6,0.9,0.6,1.4c0,0.6-0.2,1-0.6,1.4c-0.4,0.4-0.9,0.6-1.4,0.6
		c-0.6,0-1-0.2-1.4-0.6c-0.4-0.4-0.6-0.9-0.6-1.4c0-0.6,0.2-1,0.6-1.4S548.9,541.3,549.4,541.3C549.5,541.3,549.5,541.3,549.4,541.3
		"/>
	<path class="st0" d="M535.6,541.3c0.6,0,1,0.2,1.4,0.6c0.4,0.4,0.6,0.9,0.6,1.4c0,0.6-0.2,1-0.6,1.4c-0.4,0.4-0.9,0.6-1.4,0.6
		c-0.6,0-1-0.2-1.4-0.6s-0.6-0.9-0.6-1.4c0-0.6,0.2-1,0.6-1.4C534.6,541.5,535.1,541.3,535.6,541.3
		C535.7,541.3,535.7,541.3,535.6,541.3"/>
	<path class="st0" d="M549.4,527.3c0.6,0,1,0.2,1.4,0.6c0.4,0.4,0.6,0.9,0.6,1.4c0,0.6-0.2,1-0.6,1.4c-0.4,0.4-0.9,0.6-1.4,0.6
		c-0.6,0-1-0.2-1.4-0.6c-0.4-0.4-0.6-0.9-0.6-1.4c0-0.6,0.2-1,0.6-1.4S548.9,527.3,549.4,527.3C549.5,527.3,549.5,527.3,549.4,527.3
		"/>
	<path class="st0" d="M535.6,527.3c0.6,0,1,0.2,1.4,0.6c0.4,0.4,0.6,0.9,0.6,1.4c0,0.6-0.2,1-0.6,1.4c-0.4,0.4-0.9,0.6-1.4,0.6
		c-0.6,0-1-0.2-1.4-0.6s-0.6-0.9-0.6-1.4c0-0.6,0.2-1,0.6-1.4C534.6,527.5,535.1,527.3,535.6,527.3
		C535.7,527.3,535.7,527.3,535.6,527.3"/>
	<path class="st0" d="M549.4,513.3c0.6,0,1,0.2,1.4,0.6c0.4,0.4,0.6,0.9,0.6,1.4c0,0.6-0.2,1-0.6,1.4c-0.4,0.4-0.9,0.6-1.4,0.6
		c-0.6,0-1-0.2-1.4-0.6c-0.4-0.4-0.6-0.9-0.6-1.4c0-0.6,0.2-1,0.6-1.4S548.9,513.3,549.4,513.3C549.5,513.3,549.5,513.3,549.4,513.3
		"/>
	<path class="st0" d="M535.6,513.3c0.6,0,1,0.2,1.4,0.6c0.4,0.4,0.6,0.9,0.6,1.4c0,0.6-0.2,1-0.6,1.4c-0.4,0.4-0.9,0.6-1.4,0.6
		c-0.6,0-1-0.2-1.4-0.6s-0.6-0.9-0.6-1.4c0-0.6,0.2-1,0.6-1.4C534.6,513.5,535.1,513.3,535.6,513.3
		C535.7,513.3,535.7,513.3,535.6,513.3"/>
	<path class="st0" d="M549.4,499.3c0.6,0,1,0.2,1.4,0.6s0.6,0.9,0.6,1.4s-0.2,1-0.6,1.4c-0.4,0.4-0.9,0.6-1.4,0.6
		c-0.6,0-1-0.2-1.4-0.6c-0.4-0.4-0.6-0.9-0.6-1.4c0-0.6,0.2-1,0.6-1.4C548.4,499.5,548.9,499.3,549.4,499.3
		C549.5,499.3,549.5,499.3,549.4,499.3"/>
	<path class="st0" d="M535.6,499.3c0.6,0,1,0.2,1.4,0.6c0.4,0.4,0.6,0.9,0.6,1.4c0,0.6-0.2,1-0.6,1.4s-0.9,0.6-1.4,0.6
		c-0.6,0-1-0.2-1.4-0.6s-0.6-0.9-0.6-1.4c0-0.6,0.2-1,0.6-1.4C534.6,499.5,535.1,499.3,535.6,499.3
		C535.7,499.3,535.7,499.3,535.6,499.3"/>
	<path class="st0" d="M549.4,485.3c0.6,0,1,0.2,1.4,0.6s0.6,0.9,0.6,1.4s-0.2,1-0.6,1.4c-0.4,0.4-0.9,0.6-1.4,0.6
		c-0.6,0-1-0.2-1.4-0.6c-0.4-0.4-0.6-0.9-0.6-1.4c0-0.6,0.2-1,0.6-1.4C548.4,485.5,548.9,485.3,549.4,485.3
		C549.5,485.3,549.5,485.3,549.4,485.3"/>
	<path class="st0" d="M535.6,485.3c0.6,0,1,0.2,1.4,0.6c0.4,0.4,0.6,0.9,0.6,1.4c0,0.6-0.2,1-0.6,1.4s-0.9,0.6-1.4,0.6
		c-0.6,0-1-0.2-1.4-0.6s-0.6-0.9-0.6-1.4c0-0.6,0.2-1,0.6-1.4C534.6,485.5,535.1,485.3,535.6,485.3
		C535.7,485.3,535.7,485.3,535.6,485.3"/>
	<path class="st0" d="M549.4,471.3c0.6,0,1,0.2,1.4,0.6s0.6,0.9,0.6,1.4s-0.2,1-0.6,1.4c-0.4,0.4-0.9,0.6-1.4,0.6
		c-0.6,0-1-0.2-1.4-0.6c-0.4-0.4-0.6-0.9-0.6-1.4c0-0.6,0.2-1,0.6-1.4C548.4,471.5,548.9,471.3,549.4,471.3
		C549.5,471.3,549.5,471.3,549.4,471.3"/>
	<path class="st0" d="M535.6,471.3c0.6,0,1,0.2,1.4,0.6c0.4,0.4,0.6,0.9,0.6,1.4c0,0.6-0.2,1-0.6,1.4s-0.9,0.6-1.4,0.6
		c-0.6,0-1-0.2-1.4-0.6s-0.6-0.9-0.6-1.4c0-0.6,0.2-1,0.6-1.4C534.6,471.5,535.1,471.3,535.6,471.3
		C535.7,471.3,535.7,471.3,535.6,471.3"/>
	<path class="st0" d="M549.4,457.3c0.6,0,1,0.2,1.4,0.6s0.6,0.9,0.6,1.4s-0.2,1-0.6,1.4c-0.4,0.4-0.9,0.6-1.4,0.6
		c-0.6,0-1-0.2-1.4-0.6c-0.4-0.4-0.6-0.9-0.6-1.4c0-0.6,0.2-1,0.6-1.4C548.4,457.5,548.9,457.3,549.4,457.3
		C549.5,457.3,549.5,457.3,549.4,457.3"/>
	<path class="st0" d="M535.6,457.3c0.6,0,1,0.2,1.4,0.6c0.4,0.4,0.6,0.9,0.6,1.4c0,0.6-0.2,1-0.6,1.4s-0.9,0.6-1.4,0.6
		c-0.6,0-1-0.2-1.4-0.6s-0.6-0.9-0.6-1.4c0-0.6,0.2-1,0.6-1.4C534.6,457.5,535.1,457.3,535.6,457.3
		C535.7,457.3,535.7,457.3,535.6,457.3"/>
	<path class="st0" d="M549.4,443.3c0.6,0,1,0.2,1.4,0.6s0.6,0.9,0.6,1.4s-0.2,1-0.6,1.4c-0.4,0.4-0.9,0.6-1.4,0.6
		c-0.6,0-1-0.2-1.4-0.6c-0.4-0.4-0.6-0.9-0.6-1.4c0-0.6,0.2-1,0.6-1.4C548.4,443.5,548.9,443.3,549.4,443.3
		C549.5,443.3,549.5,443.3,549.4,443.3"/>
	<path class="st0" d="M535.6,443.3c0.6,0,1,0.2,1.4,0.6c0.4,0.4,0.6,0.9,0.6,1.4c0,0.6-0.2,1-0.6,1.4s-0.9,0.6-1.4,0.6
		c-0.6,0-1-0.2-1.4-0.6s-0.6-0.9-0.6-1.4c0-0.6,0.2-1,0.6-1.4C534.6,443.5,535.1,443.3,535.6,443.3
		C535.7,443.3,535.7,443.3,535.6,443.3"/>
	<path class="st0" d="M549.4,429.3c0.6,0,1,0.2,1.4,0.6s0.6,0.9,0.6,1.4s-0.2,1-0.6,1.4c-0.4,0.4-0.9,0.6-1.4,0.6
		c-0.6,0-1-0.2-1.4-0.6c-0.4-0.4-0.6-0.9-0.6-1.4c0-0.6,0.2-1,0.6-1.4C548.4,429.5,548.9,429.3,549.4,429.3
		C549.5,429.3,549.5,429.3,549.4,429.3"/>
	<path class="st0" d="M535.6,429.3c0.6,0,1,0.2,1.4,0.6c0.4,0.4,0.6,0.9,0.6,1.4c0,0.6-0.2,1-0.6,1.4s-0.9,0.6-1.4,0.6
		c-0.6,0-1-0.2-1.4-0.6s-0.6-0.9-0.6-1.4c0-0.6,0.2-1,0.6-1.4C534.6,429.5,535.1,429.3,535.6,429.3
		C535.7,429.3,535.7,429.3,535.6,429.3"/>
	<path class="st1" d="M92.2,138.3c0,18.5,6.5,34.3,19.6,47.4c13.1,13.1,28.9,19.6,47.4,19.6c18.5,0,34.3-6.5,47.4-19.6
		c13.1-13.1,19.6-28.9,19.6-47.4s-6.5-34.3-19.6-47.4c-13.1-13.1-28.9-19.6-47.4-19.6c-18.5,0-34.3,6.5-47.4,19.6
		S92.2,119.8,92.2,138.3c0,0.8,0,1.6,0,2.3"/>
	<path class="st2" d="M205.3,415.5c15.4,19.7,22.3,44.7,19.2,69.5c-3.1,24.8-15.8,47.4-35.5,62.7c-19.7,15.4-44.7,22.3-69.5,19.2
		c-24.8-3.1-47.4-15.8-62.7-35.5l0,0l74.3-58L205.3,415.5z"/>
	<path class="st3" d="M362.2,49.3c0-5.5-4.5-10-10-10l0,0h-215c-5.5,0-10,4.5-10,10l0,0v460c0,5.5,4.5,10,10,10l0,0h215
		c5.5,0,10-4.5,10-10l0,0V49.3z"/>
	<g>
		<path class="st4" d="M604.2,49.3c0-5.5-4.5-10-10-10l0,0h-437c-5.5,0-10,4.5-10,10l0,0v440c0,5.5,4.5,10,10,10l0,0h437
			c5.5,0,10-4.5,10-10l0,0V49.3z"/>
	</g>
</g>
</svg>
